<svg width="28" height="28" viewBox="0 0 28 28" fill="none" xmlns="http://www.w3.org/2000/svg">
<path d="M21.0623 13.5505L21.0582 13.5434L21.0537 13.5366L21.0467 13.5261C21.0309 13.496 21.0129 13.4704 21.0003 13.4536C20.9823 13.4296 20.9615 13.4053 20.9418 13.3855C20.9195 13.3632 20.8891 13.3355 20.8566 13.3098C20.8331 13.2912 20.7941 13.2619 20.7485 13.2398C20.6088 13.1572 20.4555 13.1146 20.293 13.1146L20.1639 13.1146L20.0349 13.1146L17.4038 13.1146L14.8913 13.1146C14.8876 11.3777 14.8877 9.64449 14.8916 7.90741L14.8916 7.90684C14.8916 7.9018 14.8916 7.89669 14.8916 7.89152C14.8917 7.75024 14.8918 7.56093 14.8262 7.37921C14.7846 7.24744 14.7028 7.14556 14.6188 7.07064C14.5888 7.0413 14.5588 7.01659 14.5375 6.99967C14.5282 6.99225 14.5194 6.98545 14.5134 6.98081C14.5126 6.98017 14.5118 6.97958 14.5111 6.97902L14.4981 6.96607L14.4717 6.95024C14.3271 6.86348 14.1718 6.81555 14.0087 6.81629C13.8463 6.81703 13.6924 6.86586 13.5495 6.94755L13.5494 6.9475L13.5449 6.95024C13.5051 6.97408 13.4696 7.00614 13.4472 7.02728C13.4213 7.05171 13.3957 7.07838 13.3739 7.10182C13.3518 7.1256 13.3318 7.14804 13.3173 7.16458L13.2999 7.18444C13.2993 7.18509 13.2988 7.18566 13.2984 7.18617L13.2841 7.20045L13.2696 7.22305C13.1652 7.38545 13.129 7.56045 13.129 7.73339L13.129 8.83059L13.129 9.92779L13.129 11.5897L13.129 13.1106C11.3877 13.1106 9.64673 13.1105 7.90971 13.1066L7.90914 13.1066C7.78494 13.1066 7.64591 13.1103 7.50581 13.1403C7.33688 13.1765 7.19063 13.2697 7.08291 13.3774C7.02308 13.4373 6.98155 13.505 6.95657 13.5466L6.95653 13.5466L6.95406 13.5509C6.71307 13.9712 6.84863 14.5011 7.26821 14.7528L7.26821 14.7529L7.27041 14.7541C7.43983 14.8535 7.61425 14.8772 7.77602 14.8772L10.5069 14.8772L13.125 14.8772L13.125 17.4993L13.125 20.2343V20.2439L13.1257 20.2534C13.1262 20.2595 13.1267 20.2684 13.1273 20.2794C13.1292 20.3163 13.1325 20.376 13.1403 20.4237C13.195 20.7617 13.3978 21.0137 13.7316 21.1249L13.7316 21.1249L13.734 21.1257C14.0605 21.2308 14.3775 21.1551 14.6241 20.9198C14.8322 20.7232 14.8916 20.4684 14.8916 20.2343L14.8916 20.2337C14.8877 18.4478 14.8837 16.6624 14.8873 14.8772L17.4895 14.8772H20.2164C20.2197 14.8772 20.2249 14.8774 20.2317 14.8775C20.2656 14.8784 20.3377 14.8802 20.3997 14.8709C21.0286 14.7948 21.3821 14.1058 21.0623 13.5505ZM14.6867 13.1172C14.6857 13.1172 14.686 13.1172 14.6874 13.1172C14.6871 13.1172 14.6869 13.1172 14.6867 13.1172ZM14.8867 14.6757C14.8867 14.6757 14.8867 14.6762 14.8866 14.6771C14.8866 14.6769 14.8866 14.6767 14.8866 14.6766C14.8867 14.676 14.8867 14.6757 14.8867 14.6757ZM14.6875 14.8763C14.6865 14.8763 14.686 14.8763 14.686 14.8763C14.6861 14.8763 14.6863 14.8763 14.6869 14.8763C14.6871 14.8763 14.6873 14.8763 14.6875 14.8763Z" fill="white" stroke="white" stroke-width="0.5"/>
</svg>
