<svg width="28" height="28" viewBox="0 0 28 28" fill="none" xmlns="http://www.w3.org/2000/svg">
<path d="M11.562 16.4632C11.6123 16.4129 11.6626 16.3627 11.7128 16.3124C14.0755 13.9497 16.4381 11.5871 18.8259 9.22443C18.9767 9.07362 19.1527 8.94795 19.3538 8.87255C20.0575 8.6212 20.7613 9.14903 20.8618 9.77739C20.9121 10.1795 20.8116 10.5063 20.51 10.7828C19.5548 11.7379 18.5746 12.7181 17.6195 13.6733C15.8852 15.4076 14.1509 17.1418 12.4166 18.8761C12.1904 19.1023 11.939 19.228 11.6374 19.2532C11.3861 19.2783 11.1347 19.2029 10.9085 19.0521C10.8331 19.0018 10.7577 18.9515 10.7074 18.8761C9.65178 17.8205 8.59613 16.7648 7.54047 15.7092C7.31426 15.483 7.16345 15.2065 7.16345 14.8797C7.16345 14.377 7.43993 13.9497 7.96776 13.7738C8.39505 13.6481 8.7972 13.7487 9.12395 14.0754C9.87799 14.8295 10.6572 15.5835 11.4112 16.3627C11.4615 16.3627 11.5117 16.4129 11.562 16.4632Z" fill="white"/>
</svg>
