<svg width="12" height="15" viewBox="0 0 12 15" fill="none" xmlns="http://www.w3.org/2000/svg">
<path d="M5.28271 0.223907L0.223676 5.28283C0.0792663 5.42724 -8.97e-09 5.61971 0 5.82493C8.981e-09 6.03039 0.0793802 6.22274 0.223676 6.36716L0.683102 6.82647C0.827284 6.97076 1.01987 7.05026 1.22521 7.05026C1.43044 7.05026 1.62951 6.97076 1.7737 6.82647L4.73149 3.87517V13.2516C4.73149 13.6743 5.06245 14.0084 5.48532 14.0084H6.13482C6.55769 14.0084 6.92202 13.6743 6.92202 13.2516V3.84168L9.89632 6.82635C10.0407 6.97065 10.2281 7.05014 10.4334 7.05014C10.6385 7.05014 10.8286 6.97065 10.9729 6.82635L11.4309 6.36704C11.5753 6.22263 11.654 6.03027 11.654 5.82482C11.654 5.61959 11.5742 5.42712 11.4298 5.28271L6.37091 0.223793C6.22604 0.0790411 6.03266 -0.000566416 5.82709 3.03403e-06C5.62084 -0.00045251 5.42735 0.079041 5.28271 0.223907Z" fill="#BCBFC9"/>
</svg>
