<svg width="28" height="28" viewBox="0 0 28 28" fill="none" xmlns="http://www.w3.org/2000/svg">
<path fill-rule="evenodd" clip-rule="evenodd" d="M12.5842 7.02734C12.5842 7.04238 12.5351 7.05469 12.4752 7.05469C12.4153 7.05469 12.3663 7.06699 12.3663 7.08203C12.3663 7.09707 12.3418 7.10938 12.3119 7.10938C12.2819 7.10938 12.2574 7.12168 12.2574 7.13672C12.2574 7.15176 12.2382 7.16406 12.2147 7.16406C12.1596 7.16406 12.0941 7.22991 12.0941 7.28517C12.0941 7.30879 12.0818 7.32812 12.0668 7.32812C12.0519 7.32812 12.0396 7.35273 12.0396 7.38281C12.0396 7.41289 12.0274 7.4375 12.0124 7.4375C11.995 7.4375 11.9851 7.68359 11.9851 8.12109V8.80469H11.0322C10.415 8.80469 10.0792 8.81431 10.0792 8.83203C10.0792 8.84939 9.87045 8.85938 9.50743 8.85938C9.1444 8.85938 8.93564 8.86936 8.93564 8.88672C8.93564 8.90176 8.91114 8.91406 8.88119 8.91406C8.85124 8.91406 8.82673 8.92637 8.82673 8.94141C8.82673 8.95645 8.80781 8.96875 8.78467 8.96875C8.73018 8.96875 8.60891 9.09054 8.60891 9.14525C8.60891 9.1685 8.59666 9.1875 8.58168 9.1875C8.56671 9.1875 8.55446 9.21211 8.55446 9.24219C8.55446 9.27227 8.5422 9.29688 8.52723 9.29688C8.50994 9.29688 8.5 9.50652 8.5 9.87109V10.4453H14H19.5V9.87109C19.5 9.50652 19.4901 9.29688 19.4728 9.29688C19.4578 9.29688 19.4455 9.27227 19.4455 9.24219C19.4455 9.21211 19.4333 9.1875 19.4183 9.1875C19.4033 9.1875 19.3911 9.1685 19.3911 9.14525C19.3911 9.09054 19.2698 8.96875 19.2153 8.96875C19.1922 8.96875 19.1733 8.95645 19.1733 8.94141C19.1733 8.92637 19.1488 8.91406 19.1188 8.91406C19.0889 8.91406 19.0644 8.90176 19.0644 8.88672C19.0644 8.86881 18.538 8.85938 17.5396 8.85938H16.0149V8.14844C16.0149 7.6927 16.0051 7.4375 15.9876 7.4375C15.9726 7.4375 15.9604 7.4156 15.9604 7.38886C15.9604 7.36209 15.9359 7.32246 15.9059 7.30078C15.876 7.2791 15.8515 7.23948 15.8515 7.21271C15.8515 7.1843 15.8313 7.16406 15.803 7.16406C15.7764 7.16406 15.7369 7.13945 15.7153 7.10938C15.6923 7.07727 15.6449 7.05469 15.6004 7.05469C15.5588 7.05469 15.5248 7.04238 15.5248 7.02734C15.5248 7.00946 15.0165 7 14.0545 7C13.0924 7 12.5842 7.00946 12.5842 7.02734ZM15.0347 7.51953C15.0347 7.53457 15.0592 7.54688 15.0891 7.54688C15.1191 7.54688 15.1436 7.55918 15.1436 7.57422C15.1436 7.58926 15.1623 7.60156 15.1851 7.60156C15.2553 7.60156 15.4703 7.83806 15.4703 7.9153C15.4703 7.95329 15.4825 7.98438 15.4975 7.98438C15.5145 7.98438 15.5248 8.14844 15.5248 8.42188V8.85938H14H12.4752V8.42188C12.4752 8.14844 12.4855 7.98438 12.5025 7.98438C12.5175 7.98438 12.5297 7.95329 12.5297 7.9153C12.5297 7.83806 12.7447 7.60156 12.8149 7.60156C12.8377 7.60156 12.8564 7.58926 12.8564 7.57422C12.8564 7.55918 12.8809 7.54688 12.9109 7.54688C12.9408 7.54688 12.9653 7.53457 12.9653 7.51953C12.9653 7.50179 13.3284 7.49219 14 7.49219C14.6716 7.49219 15.0347 7.50179 15.0347 7.51953ZM9.20792 11.1836C9.20792 11.1986 9.22017 11.2109 9.23515 11.2109C9.25165 11.2109 9.26238 11.3294 9.26238 11.5117C9.26238 11.694 9.2731 11.8125 9.2896 11.8125C9.30594 11.8125 9.31683 11.9219 9.31683 12.0859C9.31683 12.25 9.32772 12.3594 9.34406 12.3594C9.3604 12.3594 9.37129 12.4688 9.37129 12.6328C9.37129 12.7969 9.38218 12.9062 9.39851 12.9062C9.41501 12.9062 9.42574 13.0247 9.42574 13.207C9.42574 13.3893 9.43647 13.5078 9.45297 13.5078C9.46931 13.5078 9.4802 13.6172 9.4802 13.7812C9.4802 13.9453 9.49109 14.0547 9.50743 14.0547C9.52376 14.0547 9.53465 14.1641 9.53465 14.3281C9.53465 14.4922 9.54554 14.6016 9.56188 14.6016C9.57838 14.6016 9.58911 14.72 9.58911 14.9023C9.58911 15.0846 9.59984 15.2031 9.61634 15.2031C9.63267 15.2031 9.64356 15.3125 9.64356 15.4766C9.64356 15.6406 9.65446 15.75 9.67079 15.75C9.68729 15.75 9.69802 15.8685 9.69802 16.0508C9.69802 16.2331 9.70875 16.3516 9.72525 16.3516C9.74158 16.3516 9.75248 16.4609 9.75248 16.625C9.75248 16.7891 9.76337 16.8984 9.7797 16.8984C9.79604 16.8984 9.80693 17.0078 9.80693 17.1719C9.80693 17.3359 9.81782 17.4453 9.83416 17.4453C9.85049 17.4453 9.86139 17.5547 9.86139 17.7188C9.86139 17.8828 9.87228 17.9922 9.88861 17.9922C9.90511 17.9922 9.91584 18.1107 9.91584 18.293C9.91584 18.4753 9.92657 18.5938 9.94307 18.5938C9.95941 18.5938 9.9703 18.7031 9.9703 18.8672C9.9703 19.0312 9.98119 19.1406 9.99752 19.1406C10.014 19.1406 10.0248 19.2591 10.0248 19.4414C10.0248 19.6237 10.0355 19.7422 10.052 19.7422C10.0683 19.7422 10.0792 19.8516 10.0792 20.0156C10.0792 20.1797 10.0901 20.2891 10.1064 20.2891C10.1216 20.2891 10.1337 20.362 10.1337 20.4531C10.1337 20.5443 10.1458 20.6172 10.1609 20.6172C10.1759 20.6172 10.1881 20.636 10.1881 20.6589C10.1881 20.7294 10.4236 20.9453 10.5005 20.9453C10.5383 20.9453 10.5693 20.9576 10.5693 20.9727C10.5693 20.9907 11.7219 21 13.9728 21C16.2236 21 17.3762 20.9907 17.3762 20.9727C17.3762 20.9576 17.413 20.9453 17.4579 20.9453C17.5028 20.9453 17.5396 20.933 17.5396 20.918C17.5396 20.9029 17.5584 20.8906 17.5813 20.8906C17.6043 20.8906 17.6656 20.848 17.7175 20.7958C17.7694 20.7437 17.8119 20.6822 17.8119 20.6591C17.8119 20.6361 17.8241 20.6172 17.8391 20.6172C17.8547 20.6172 17.8663 20.5352 17.8663 20.4258C17.8663 20.3164 17.878 20.2344 17.8936 20.2344C17.9099 20.2344 17.9208 20.125 17.9208 19.9609C17.9208 19.7969 17.9317 19.6875 17.948 19.6875C17.9644 19.6875 17.9752 19.5781 17.9752 19.4141C17.9752 19.25 17.9861 19.1406 18.0025 19.1406C18.019 19.1406 18.0297 19.0221 18.0297 18.8398C18.0297 18.6575 18.0404 18.5391 18.0569 18.5391C18.0733 18.5391 18.0842 18.4297 18.0842 18.2656C18.0842 18.1016 18.095 17.9922 18.1114 17.9922C18.1279 17.9922 18.1386 17.8737 18.1386 17.6914C18.1386 17.5091 18.1493 17.3906 18.1658 17.3906C18.1822 17.3906 18.1931 17.2812 18.1931 17.1172C18.1931 16.9531 18.204 16.8438 18.2203 16.8438C18.2366 16.8438 18.2475 16.7344 18.2475 16.5703C18.2475 16.4062 18.2584 16.2969 18.2748 16.2969C18.2913 16.2969 18.302 16.1784 18.302 15.9961C18.302 15.8138 18.3127 15.6953 18.3292 15.6953C18.3455 15.6953 18.3564 15.5859 18.3564 15.4219C18.3564 15.2578 18.3673 15.1484 18.3837 15.1484C18.4 15.1484 18.4109 15.0391 18.4109 14.875C18.4109 14.7109 18.4218 14.6016 18.4381 14.6016C18.4545 14.6016 18.4653 14.4922 18.4653 14.3281C18.4653 14.1641 18.4762 14.0547 18.4926 14.0547C18.5091 14.0547 18.5198 13.9362 18.5198 13.7539C18.5198 13.5716 18.5305 13.4531 18.547 13.4531C18.5634 13.4531 18.5743 13.3438 18.5743 13.1797C18.5743 13.0156 18.5851 12.9062 18.6015 12.9062C18.618 12.9062 18.6287 12.7878 18.6287 12.6055C18.6287 12.4232 18.6394 12.3047 18.6559 12.3047C18.6723 12.3047 18.6832 12.1953 18.6832 12.0312C18.6832 11.8672 18.6941 11.7578 18.7104 11.7578C18.7267 11.7578 18.7376 11.6484 18.7376 11.4844C18.7376 11.3203 18.7485 11.2109 18.7649 11.2109C18.7798 11.2109 18.7921 11.1986 18.7921 11.1836C18.7921 11.1655 17.1766 11.1562 14 11.1562C10.8234 11.1562 9.20792 11.1655 9.20792 11.1836ZM11.7284 12.7813C11.7577 12.8106 11.7673 12.8989 11.7673 13.1367C11.7673 13.3294 11.778 13.4531 11.7946 13.4531C11.8115 13.4531 11.8218 13.6081 11.8218 13.8633C11.8218 14.1185 11.8321 14.2734 11.849 14.2734C11.8659 14.2734 11.8762 14.4193 11.8762 14.6562C11.8762 14.8932 11.8866 15.0391 11.9035 15.0391C11.9203 15.0391 11.9307 15.1849 11.9307 15.4219C11.9307 15.6589 11.9411 15.8047 11.9579 15.8047C11.9748 15.8047 11.9851 15.9505 11.9851 16.1875C11.9851 16.4245 11.9955 16.5703 12.0124 16.5703C12.0293 16.5703 12.0396 16.7253 12.0396 16.9805C12.0396 17.2357 12.0499 17.3906 12.0668 17.3906C12.0837 17.3906 12.0941 17.5364 12.0941 17.7734C12.0941 18.0104 12.1044 18.1562 12.1213 18.1562C12.1381 18.1562 12.1485 18.3021 12.1485 18.5391C12.1485 18.7761 12.1589 18.9219 12.1757 18.9219C12.1907 18.9219 12.203 18.9834 12.203 19.0586V19.1953H11.8335C11.5495 19.1953 11.4549 19.1863 11.425 19.1562C11.3952 19.1262 11.3861 19.0312 11.3861 18.7461C11.3861 18.5169 11.3757 18.375 11.3589 18.375C11.3421 18.375 11.3317 18.2292 11.3317 17.9922C11.3317 17.7552 11.3213 17.6094 11.3045 17.6094C11.2876 17.6094 11.2772 17.4636 11.2772 17.2266C11.2772 16.9896 11.2669 16.8438 11.25 16.8438C11.2331 16.8438 11.2228 16.6888 11.2228 16.4336C11.2228 16.1784 11.2125 16.0234 11.1955 16.0234C11.1787 16.0234 11.1683 15.8776 11.1683 15.6406C11.1683 15.4036 11.1579 15.2578 11.1411 15.2578C11.1242 15.2578 11.1139 15.112 11.1139 14.875C11.1139 14.638 11.1035 14.4922 11.0866 14.4922C11.0698 14.4922 11.0594 14.3464 11.0594 14.1094C11.0594 13.8724 11.049 13.7266 11.0322 13.7266C11.0152 13.7266 11.005 13.5716 11.005 13.3164C11.005 13.0612 10.9947 12.9062 10.9777 12.9062C10.9395 12.9062 10.9438 12.8296 10.9845 12.7831C11.0338 12.7269 11.6727 12.7253 11.7284 12.7813ZM14.3812 16.0508V19.3594H14H13.6188V16.0508V12.7422H14H14.3812V16.0508ZM17.0106 12.7813C17.0552 12.8261 17.0627 12.9062 17.0223 12.9062C17.0053 12.9062 16.995 13.0612 16.995 13.3164C16.995 13.5716 16.9848 13.7266 16.9678 13.7266C16.951 13.7266 16.9406 13.8724 16.9406 14.1094C16.9406 14.3464 16.9302 14.4922 16.9134 14.4922C16.8965 14.4922 16.8861 14.638 16.8861 14.875C16.8861 15.112 16.8758 15.2578 16.8589 15.2578C16.8421 15.2578 16.8317 15.4036 16.8317 15.6406C16.8317 15.8776 16.8213 16.0234 16.8045 16.0234C16.7875 16.0234 16.7772 16.1784 16.7772 16.4336C16.7772 16.6888 16.7669 16.8438 16.75 16.8438C16.7331 16.8438 16.7228 16.9896 16.7228 17.2266C16.7228 17.4636 16.7124 17.6094 16.6955 17.6094C16.6787 17.6094 16.6683 17.7552 16.6683 17.9922C16.6683 18.2292 16.6579 18.375 16.6411 18.375C16.6243 18.375 16.6139 18.5169 16.6139 18.7461C16.6139 19.0312 16.6048 19.1262 16.575 19.1562C16.5451 19.1863 16.4505 19.1953 16.1665 19.1953H15.797V19.0586C15.797 18.9834 15.8093 18.9219 15.8243 18.9219C15.8411 18.9219 15.8515 18.7761 15.8515 18.5391C15.8515 18.3021 15.8619 18.1562 15.8787 18.1562C15.8956 18.1562 15.9059 18.0104 15.9059 17.7734C15.9059 17.5364 15.9163 17.3906 15.9332 17.3906C15.9501 17.3906 15.9604 17.2357 15.9604 16.9805C15.9604 16.7253 15.9707 16.5703 15.9876 16.5703C16.0045 16.5703 16.0149 16.4245 16.0149 16.1875C16.0149 15.9505 16.0252 15.8047 16.0421 15.8047C16.0589 15.8047 16.0693 15.6589 16.0693 15.4219C16.0693 15.1849 16.0797 15.0391 16.0965 15.0391C16.1134 15.0391 16.1238 14.8932 16.1238 14.6562C16.1238 14.4193 16.1341 14.2734 16.151 14.2734C16.1679 14.2734 16.1782 14.1185 16.1782 13.8633C16.1782 13.6081 16.1885 13.4531 16.2054 13.4531C16.222 13.4531 16.2327 13.3297 16.2327 13.1375C16.2327 12.924 16.2437 12.8093 16.2667 12.7831C16.316 12.7269 16.9549 12.7253 17.0106 12.7813Z" fill="#A5A5A5"/>
</svg>
