<svg width="15" height="15" viewBox="0 0 15 15" fill="none" xmlns="http://www.w3.org/2000/svg">
<path fill-rule="evenodd" clip-rule="evenodd" d="M11.7188 5.78122C11.6499 5.85007 11.6155 5.8845 11.584 5.91113C11.211 6.2273 10.664 6.2273 10.291 5.91113C10.2595 5.8845 10.2251 5.85007 10.1563 5.78122L9.21875 4.84372C9.1499 4.77487 9.11547 4.74045 9.08884 4.70902C8.77267 4.33596 8.77267 3.78898 9.08884 3.41593C9.11547 3.3845 9.1499 3.35007 9.21875 3.28122V3.28122C9.2876 3.21237 9.32203 3.17795 9.35346 3.15131C9.72651 2.83514 10.2735 2.83514 10.6465 3.15131C10.678 3.17795 10.7124 3.21237 10.7812 3.28122L11.7187 4.21872C11.7876 4.28757 11.822 4.322 11.8487 4.35343C12.1648 4.72648 12.1648 5.27346 11.8487 5.64652C11.822 5.67795 11.7876 5.71237 11.7188 5.78122V5.78122ZM4.26777 12.5C3.5486 12.5 3.18902 12.5 2.93288 12.3236C2.83245 12.2545 2.74552 12.1675 2.67636 12.0671C2.5 11.811 2.5 11.4514 2.5 10.7322V10.7322C2.5 10.4189 2.5 10.2623 2.54511 10.1172C2.56318 10.0591 2.58651 10.0028 2.61481 9.94895C2.68548 9.81449 2.79624 9.70373 3.01777 9.4822L6.5625 5.93747C7.07103 5.42894 7.32529 5.17468 7.63111 5.11827C7.75103 5.09616 7.87397 5.09616 7.99389 5.11827C8.29971 5.17468 8.55397 5.42894 9.0625 5.93747V5.93747C9.57103 6.446 9.82529 6.70026 9.8817 7.00609C9.90382 7.126 9.90382 7.24894 9.8817 7.36886C9.82529 7.67468 9.57103 7.92894 9.0625 8.43747L5.51777 11.9822C5.29624 12.2037 5.18548 12.3145 5.05102 12.3852C4.99716 12.4135 4.94084 12.4368 4.88274 12.4549C4.73769 12.5 4.58105 12.5 4.26777 12.5V12.5Z" fill="#DCDCDC"/>
</svg>
