<svg width="11" height="14" viewBox="0 0 11 14" fill="none" xmlns="http://www.w3.org/2000/svg">
<path d="M1.22401 0.609619C0.54139 0.609619 0 1.14887 0 1.82879V6.68204V9.09696V12.731C0 13.3875 0.54139 13.9502 1.22401 13.9502H9.745C10.4041 13.9502 10.9691 13.411 10.9691 12.731V9.0735V6.65858V4.2437L7.32056 0.609619H1.22401Z" fill="#93979E"/>
<path d="M1.22401 0C0.54139 0 0 0.53925 0 1.21917V6.0724V8.48732V12.1214C0 12.7779 0.54139 13.3406 1.22401 13.3406H9.745C10.4041 13.3406 10.9691 12.8013 10.9691 12.1214V8.46391V6.049V3.63408L7.32056 0H1.22401Z" fill="#BCBFC9"/>
<path d="M9.13292 4.24367H1.83594V4.85325H9.13292V4.24367Z" fill="#131B3D"/>
<path d="M9.13292 6.04901H1.83594V6.65859H9.13292V6.04901Z" fill="#131B3D"/>
<path d="M9.13292 7.87781H1.83594V8.48739H9.13292V7.87781Z" fill="#131B3D"/>
<path d="M9.13292 9.68307H1.83594V10.2927H9.13292V9.68307Z" fill="#131B3D"/>
</svg>
