<svg width="15" height="15" viewBox="0 0 15 15" fill="none" xmlns="http://www.w3.org/2000/svg">
<path fill-rule="evenodd" clip-rule="evenodd" d="M6.9375 2.25C6.9375 1.69772 6.48978 1.25 5.9375 1.25H4.375C3.68464 1.25 3.125 1.80964 3.125 2.5V12.5C3.125 13.1904 3.68464 13.75 4.375 13.75H10.625C11.3154 13.75 11.875 13.1904 11.875 12.5V7.1875C11.875 6.63522 11.4273 6.1875 10.875 6.1875H8.75C7.74898 6.1875 6.9375 5.37602 6.9375 4.375V2.25ZM5.9375 8.1875C5.62684 8.1875 5.375 8.43934 5.375 8.75C5.375 9.06066 5.62684 9.3125 5.9375 9.3125H7.5C7.81066 9.3125 8.0625 9.06066 8.0625 8.75C8.0625 8.43934 7.81066 8.1875 7.5 8.1875H5.9375ZM5.9375 10.375C5.62684 10.375 5.375 10.6268 5.375 10.9375C5.375 11.2482 5.62684 11.5 5.9375 11.5H9.0625C9.37316 11.5 9.625 11.2482 9.625 10.9375C9.625 10.6268 9.37316 10.375 9.0625 10.375H5.9375Z" fill="#DCDCDC"/>
<path d="M10.1054 5.0625C10.5508 5.0625 10.7739 4.52393 10.4589 4.20895L8.91605 2.66605C8.60107 2.35107 8.0625 2.57415 8.0625 3.01961V4.375C8.0625 4.7547 8.3703 5.0625 8.75 5.0625H10.1054Z" fill="#DCDCDC"/>
</svg>
