<svg width="28" height="28" viewBox="0 0 28 28" fill="none" xmlns="http://www.w3.org/2000/svg">
<path d="M12.0222 21.6062C12.1117 21.6617 12.215 21.6909 12.3203 21.6906C12.4084 21.6901 12.4951 21.6689 12.5734 21.6287L15.3241 20.2562C15.6052 20.1159 15.8415 19.8999 16.0064 19.6326C16.1714 19.3653 16.2585 19.0572 16.2579 18.7431V15.7168L20.6004 10.896C21.0652 10.3785 21.3217 9.70719 21.3205 9.01163V8.75288C21.3205 8.60369 21.2612 8.46062 21.1557 8.35512C21.0502 8.24963 20.9071 8.19037 20.7579 8.19037H7.25771C7.10852 8.19037 6.96544 8.24963 6.85995 8.35512C6.75446 8.46062 6.6952 8.60369 6.6952 8.75288V9.01163C6.69393 9.70719 6.95045 10.3785 7.41521 10.896L11.7578 15.7168V21.1281C11.7576 21.2237 11.7818 21.3178 11.828 21.4014C11.8743 21.4851 11.9411 21.5556 12.0222 21.6062Z" fill="white"/>
</svg>
