<svg width="18" height="14" viewBox="0 0 18 14" fill="none" xmlns="http://www.w3.org/2000/svg">
<path d="M1.25498 0C0.564613 0 0.00704914 0.566693 0.00704914 1.26837V12.7199C0.00704914 13.4216 -0.107097 13.9325 0.583271 13.9325L8.15916 13.9883H12.6015H13.8495C14.5398 13.9883 15.0974 13.4216 15.0974 12.7199V4.48V2.56406C15.0974 1.86239 14.5398 1.2957 13.8495 1.2957H12.6015H8.1855H7.54837L5.66276 0.0267729L1.25498 0Z" fill="#94989F"/>
<path d="M17.8468 4.48392C17.6991 4.35173 17.4961 4.38073 17.247 4.3679C17.2421 4.36734 17.2376 4.36734 17.2327 4.36734C16.8611 4.36957 3.483 4.33946 3.43526 4.3389C3.25636 4.33834 3.07746 4.33611 2.89855 4.3389C2.6302 4.3428 2.43593 4.47667 2.35087 4.72097C2.25154 5.00655 0.19526 12.5699 0.188126 12.585C0.111846 12.8817 0.176053 13.1031 0.258919 13.1968C0.360443 13.3112 0.481724 13.4556 0.742394 13.4729C0.763248 13.4724 1.09745 13.4774 1.11502 13.4785C1.48764 13.4897 5.15075 13.4869 5.36422 13.4746C5.37191 13.474 5.37959 13.474 5.38727 13.474C5.82742 13.4863 14.8219 13.4936 15.2225 13.4679C15.5732 13.4389 15.7833 13.281 15.8728 12.8878C15.8739 12.8834 15.8734 12.8889 15.875 12.885C15.9749 12.547 17.8424 5.51746 17.9209 5.2726C17.9319 5.23914 18.0871 4.72822 17.8468 4.48392Z" fill="#1C1F3C"/>
<path d="M17.7206 4.98645C17.5729 4.85426 17.3694 4.88326 17.1197 4.87043C17.1148 4.86988 17.1104 4.86988 17.1054 4.86988C16.7334 4.87211 3.3398 4.84199 3.29205 4.84143C3.1126 4.84087 2.9337 4.83864 2.75479 4.84143C2.48644 4.84533 2.29217 4.9792 2.20656 5.2235C2.10723 5.50964 0.0487589 13.073 0.0416247 13.0875C-0.0346558 13.3842 0.0295515 13.6057 0.112966 13.6994C0.21449 13.8137 0.335771 13.9582 0.59699 13.9755C0.617844 13.9749 0.9526 13.9799 0.970161 13.981C1.34333 13.9922 5.01028 13.9894 5.22431 13.9771C5.23199 13.9766 5.23967 13.9766 5.24736 13.9766C5.68805 13.9888 14.6924 13.9961 15.0936 13.9704C15.4443 13.9414 15.655 13.7836 15.745 13.3904C15.746 13.3859 15.7456 13.3915 15.7472 13.3876C15.8471 13.0496 17.7168 6.02 17.7953 5.77514C17.8057 5.74223 17.9615 5.23131 17.7206 4.98645Z" fill="#BBBFC8"/>
</svg>
