<svg width="15" height="14" viewBox="0 0 15 14" fill="none" xmlns="http://www.w3.org/2000/svg">
<path d="M1.27284 2.58292C0.58911 2.58292 0.0368652 3.1452 0.0368652 3.84136V12.7308C0.0368652 13.427 0.58911 13.9893 1.27284 13.9893H13.7378C14.4215 13.9893 14.9737 13.427 14.9737 12.7308V3.86814C14.9737 3.17198 14.4215 2.60969 13.7378 2.60969H1.27284V2.58292Z" fill="#93979E"/>
<path d="M1.90395 0.0392456C1.22021 0.0392456 0.667969 0.601529 0.667969 1.29769V10.1871C0.667969 10.8833 1.22021 11.4456 1.90395 11.4456H8.74124H11.8707H13.1066C13.7904 11.4456 14.3426 10.8833 14.3426 10.1871V4.48397V2.58292C14.3426 1.88675 13.7904 1.32447 13.1066 1.32447H11.8707H8.76755H8.13641L6.26934 0.0660211L1.90395 0.0392456Z" fill="#93979E"/>
<path d="M14.3689 8.2861V3.19875C14.3689 2.50259 13.8166 1.94031 13.1329 1.94031H6.29557H3.13992H1.90395C1.22021 1.94031 0.667969 2.50259 0.667969 3.19875V8.2861H14.3689Z" fill="#131B3D"/>
<path d="M1.27284 2.58292C0.58911 2.58292 0.0368652 3.1452 0.0368652 3.84136V7.6435V8.28612V12.0882C0.0368652 12.7844 0.58911 13.3466 1.27284 13.3466H13.7378C14.4215 13.3466 14.9737 12.7844 14.9737 12.0882V8.28612V7.6435V3.86814C14.9737 3.17198 14.4215 2.60969 13.7378 2.60969H1.27284V2.58292Z" fill="#BCBFC9"/>
</svg>
