<svg width="20" height="20" viewBox="0 0 20 20" fill="none" xmlns="http://www.w3.org/2000/svg">
<circle cx="10" cy="9.90002" r="9" stroke="#2D9CDB" stroke-width="1.8"/>
<path d="M10.3251 3.029C10.6991 3.029 10.9994 3.165 11.2261 3.437C11.4641 3.709 11.5718 4.04333 11.5491 4.44C11.5378 4.82533 11.4074 5.154 11.1581 5.426C10.9088 5.68667 10.5971 5.817 10.2231 5.817C9.83777 5.817 9.5261 5.68667 9.2881 5.426C9.06143 5.154 8.95377 4.82533 8.9651 4.44C8.98777 4.04333 9.1351 3.709 9.4071 3.437C9.6791 3.165 9.9851 3.029 10.3251 3.029ZM9.7301 7.313C10.3194 7.313 10.7274 7.49433 10.9541 7.857C11.1921 8.20833 11.3111 8.68433 11.3111 9.285C11.3111 9.557 11.2828 9.92533 11.2261 10.39C11.1694 10.8547 11.1071 11.342 11.0391 11.852C10.9711 12.362 10.9088 12.8267 10.8521 13.246C10.7954 13.6653 10.7671 13.9713 10.7671 14.164C10.7671 14.3453 10.7954 14.4643 10.8521 14.521C10.9088 14.5777 10.9654 14.606 11.0221 14.606C11.1581 14.606 11.2941 14.5097 11.4301 14.317C11.5661 14.1243 11.7078 13.773 11.8551 13.263L12.7731 13.535C12.7278 13.773 12.6371 14.045 12.5011 14.351C12.3764 14.657 12.2064 14.9517 11.9911 15.235C11.7758 15.507 11.5151 15.7337 11.2091 15.915C10.9144 16.0963 10.5744 16.187 10.1891 16.187C9.56577 16.187 9.1351 16.017 8.8971 15.677C8.67043 15.337 8.5571 14.8667 8.5571 14.266C8.5571 13.9373 8.58543 13.5463 8.6421 13.093C8.69877 12.6397 8.7611 12.175 8.8291 11.699C8.90843 11.223 8.97643 10.781 9.0331 10.373C9.08977 9.95367 9.1181 9.608 9.1181 9.336C9.1181 9.14333 9.08977 9.02433 9.0331 8.979C8.97643 8.92233 8.9141 8.894 8.8461 8.894C8.72143 8.894 8.5911 8.99033 8.4551 9.183C8.3191 9.37567 8.17743 9.727 8.0301 10.237L7.1121 9.965C7.15743 9.727 7.2481 9.455 7.3841 9.149C7.5201 8.843 7.69577 8.554 7.9111 8.282C8.13777 7.99867 8.39843 7.76633 8.6931 7.585C8.9991 7.40367 9.34477 7.313 9.7301 7.313Z" fill="#2D9CDB"/>
</svg>
