<svg width="509" height="218" viewBox="0 0 509 218" fill="none" xmlns="http://www.w3.org/2000/svg">
<path d="M144.79 142C143.566 142 142.58 141.66 141.832 140.98C141.152 140.232 140.812 139.246 140.812 138.022V90.184C140.812 88.96 141.152 88.008 141.832 87.328C142.58 86.58 143.566 86.206 144.79 86.206C145.946 86.206 146.864 86.58 147.544 87.328C148.292 88.008 148.666 88.96 148.666 90.184V138.022C148.666 139.246 148.292 140.232 147.544 140.98C146.864 141.66 145.946 142 144.79 142ZM144.688 75.598C143.192 75.598 141.9 75.054 140.812 73.966C139.724 72.878 139.18 71.552 139.18 69.988C139.18 68.288 139.724 66.962 140.812 66.01C141.968 64.99 143.294 64.48 144.79 64.48C146.218 64.48 147.476 64.99 148.564 66.01C149.72 66.962 150.298 68.288 150.298 69.988C150.298 71.552 149.754 72.878 148.666 73.966C147.578 75.054 146.252 75.598 144.688 75.598ZM172.642 142C171.418 142 170.432 141.66 169.684 140.98C169.004 140.232 168.664 139.28 168.664 138.124V90.184C168.664 88.96 169.004 88.008 169.684 87.328C170.432 86.58 171.418 86.206 172.642 86.206C173.798 86.206 174.716 86.58 175.396 87.328C176.144 88.008 176.518 88.96 176.518 90.184V93.652C178.694 91.136 181.38 89.164 184.576 87.736C187.84 86.308 191.342 85.594 195.082 85.594C199.91 85.594 204.228 86.614 208.036 88.654C211.844 90.626 214.836 93.55 217.012 97.426C219.256 101.302 220.378 106.028 220.378 111.604V138.124C220.378 139.212 220.004 140.13 219.256 140.878C218.508 141.626 217.59 142 216.502 142C215.346 142 214.394 141.626 213.646 140.878C212.898 140.13 212.524 139.212 212.524 138.124V111.604C212.524 105.28 210.756 100.622 207.22 97.63C203.752 94.57 199.434 93.04 194.266 93.04C190.934 93.04 187.908 93.686 185.188 94.978C182.536 96.27 180.428 98.038 178.864 100.282C177.3 102.526 176.518 105.076 176.518 107.932V138.124C176.518 139.28 176.144 140.232 175.396 140.98C174.716 141.66 173.798 142 172.642 142ZM259.522 142C255.918 142 252.688 141.15 249.832 139.45C247.044 137.75 244.834 135.438 243.202 132.514C241.57 129.522 240.754 126.122 240.754 122.314V95.08H234.124C233.104 95.08 232.254 94.774 231.574 94.162C230.894 93.482 230.554 92.666 230.554 91.714C230.554 90.694 230.894 89.878 231.574 89.266C232.254 88.586 233.104 88.246 234.124 88.246H240.754V72.436C240.754 71.28 241.094 70.328 241.774 69.58C242.522 68.832 243.474 68.458 244.63 68.458C245.786 68.458 246.738 68.832 247.486 69.58C248.234 70.328 248.608 71.28 248.608 72.436V88.246H260.134C261.154 88.246 262.004 88.586 262.684 89.266C263.364 89.878 263.704 90.694 263.704 91.714C263.704 92.666 263.364 93.482 262.684 94.162C262.004 94.774 261.154 95.08 260.134 95.08H248.608V122.314C248.608 125.782 249.628 128.638 251.668 130.882C253.708 133.058 256.326 134.146 259.522 134.146H262.276C263.364 134.146 264.248 134.52 264.928 135.268C265.608 136.016 265.948 136.968 265.948 138.124C265.948 139.28 265.54 140.232 264.724 140.98C263.908 141.66 262.888 142 261.664 142H259.522ZM304.029 142.51C298.521 142.51 293.625 141.32 289.341 138.94C285.125 136.492 281.793 133.126 279.345 128.842C276.965 124.558 275.775 119.662 275.775 114.154C275.775 108.578 276.897 103.682 279.141 99.466C281.453 95.182 284.615 91.816 288.627 89.368C292.639 86.92 297.263 85.696 302.499 85.696C307.667 85.696 312.155 86.886 315.963 89.266C319.839 91.578 322.831 94.808 324.939 98.956C327.047 103.104 328.101 107.83 328.101 113.134C328.101 114.222 327.761 115.106 327.081 115.786C326.401 116.398 325.517 116.704 324.429 116.704H283.221C283.629 120.376 284.751 123.64 286.587 126.496C288.423 129.284 290.837 131.494 293.829 133.126C296.821 134.69 300.221 135.472 304.029 135.472C306.477 135.472 308.925 135.064 311.373 134.248C313.889 133.364 315.895 132.276 317.391 130.984C318.139 130.372 318.989 130.066 319.941 130.066C320.893 129.998 321.709 130.236 322.389 130.78C323.273 131.596 323.715 132.48 323.715 133.432C323.783 134.384 323.409 135.2 322.593 135.88C320.349 137.784 317.493 139.382 314.025 140.674C310.557 141.898 307.225 142.51 304.029 142.51ZM302.499 92.734C297.263 92.734 292.945 94.366 289.545 97.63C286.145 100.826 284.105 105.008 283.425 110.176H320.757C320.213 105.008 318.309 100.826 315.045 97.63C311.849 94.366 307.667 92.734 302.499 92.734ZM363.977 142.51C358.605 142.51 353.845 141.32 349.697 138.94C345.549 136.492 342.285 133.126 339.905 128.842C337.593 124.558 336.437 119.662 336.437 114.154C336.437 108.578 337.661 103.648 340.109 99.364C342.557 95.08 345.923 91.748 350.207 89.368C354.491 86.92 359.353 85.696 364.793 85.696C370.301 85.696 375.163 86.92 379.379 89.368C383.663 91.748 386.995 95.08 389.375 99.364C391.823 103.648 393.081 108.578 393.149 114.154V134.962C393.149 140.47 391.925 145.4 389.477 149.752C387.029 154.172 383.697 157.64 379.481 160.156C375.265 162.74 370.437 164.032 364.997 164.032C359.625 164.032 354.899 163.012 350.819 160.972C346.739 159 343.373 156.28 340.721 152.812C339.973 151.996 339.633 151.112 339.701 150.16C339.837 149.208 340.347 148.426 341.231 147.814C342.115 147.202 343.101 146.998 344.189 147.202C345.277 147.406 346.127 147.916 346.739 148.732C348.711 151.18 351.227 153.152 354.287 154.648C357.415 156.144 361.019 156.892 365.099 156.892C368.907 156.892 372.341 155.974 375.401 154.138C378.461 152.302 380.875 149.718 382.643 146.386C384.479 143.054 385.397 139.144 385.397 134.656V129.964C383.357 133.84 380.467 136.9 376.727 139.144C373.055 141.388 368.805 142.51 363.977 142.51ZM364.793 135.37C368.805 135.37 372.341 134.486 375.401 132.718C378.529 130.882 380.977 128.366 382.745 125.17C384.513 121.974 385.397 118.302 385.397 114.154C385.397 110.006 384.513 106.334 382.745 103.138C380.977 99.874 378.529 97.358 375.401 95.59C372.341 93.754 368.805 92.836 364.793 92.836C360.781 92.836 357.211 93.754 354.083 95.59C350.955 97.358 348.507 99.874 346.739 103.138C344.971 106.334 344.087 110.006 344.087 114.154C344.087 118.302 344.971 121.974 346.739 125.17C348.507 128.366 350.955 130.882 354.083 132.718C357.211 134.486 360.781 135.37 364.793 135.37ZM433.72 142.51C428.212 142.51 423.316 141.32 419.032 138.94C414.816 136.492 411.484 133.126 409.036 128.842C406.656 124.558 405.466 119.662 405.466 114.154C405.466 108.578 406.588 103.682 408.832 99.466C411.144 95.182 414.306 91.816 418.318 89.368C422.33 86.92 426.954 85.696 432.19 85.696C437.358 85.696 441.846 86.886 445.654 89.266C449.53 91.578 452.522 94.808 454.63 98.956C456.738 103.104 457.792 107.83 457.792 113.134C457.792 114.222 457.452 115.106 456.772 115.786C456.092 116.398 455.208 116.704 454.12 116.704H412.912C413.32 120.376 414.442 123.64 416.278 126.496C418.114 129.284 420.528 131.494 423.52 133.126C426.512 134.69 429.912 135.472 433.72 135.472C436.168 135.472 438.616 135.064 441.064 134.248C443.58 133.364 445.586 132.276 447.082 130.984C447.83 130.372 448.68 130.066 449.632 130.066C450.584 129.998 451.4 130.236 452.08 130.78C452.964 131.596 453.406 132.48 453.406 133.432C453.474 134.384 453.1 135.2 452.284 135.88C450.04 137.784 447.184 139.382 443.716 140.674C440.248 141.898 436.916 142.51 433.72 142.51ZM432.19 92.734C426.954 92.734 422.636 94.366 419.236 97.63C415.836 100.826 413.796 105.008 413.116 110.176H450.448C449.904 105.008 448 100.826 444.736 97.63C441.54 94.366 437.358 92.734 432.19 92.734ZM474.954 142C472.37 142 471.078 140.708 471.078 138.124V90.082C471.078 87.498 472.37 86.206 474.954 86.206C477.538 86.206 478.83 87.498 478.83 90.082V94.468C480.87 91.748 483.386 89.606 486.378 88.042C489.37 86.41 492.668 85.594 496.272 85.594C499.4 85.594 501.814 86.036 503.514 86.92C505.214 87.804 505.86 89.096 505.452 90.796C505.112 92.36 504.296 93.176 503.004 93.244C501.78 93.244 500.318 93.176 498.618 93.04C494.81 92.7 491.41 93.108 488.418 94.264C485.494 95.352 483.148 97.052 481.38 99.364C479.68 101.676 478.83 104.43 478.83 107.626V138.124C478.83 140.708 477.538 142 474.954 142Z" fill="#565656"/>
<path d="M21.3799 145.729C27.9688 149.693 35.6514 151.99 43.908 151.99C49.2393 151.99 54.3519 151.06 59.0817 149.338C68.5687 145.866 76.5246 139.222 81.6645 130.692C85.6288 124.103 87.9254 116.42 87.9254 108.164C87.898 124.048 74.9936 136.898 59.1091 136.843C50.8797 136.816 43.1699 134.519 36.5809 130.582C28.0509 125.443 21.4073 117.487 17.9351 108C16.2127 103.27 15.2558 98.1573 15.2831 92.826C15.3105 84.5967 17.607 76.8868 21.544 70.2979C29.2538 57.5028 43.2792 48.9727 59.3004 49.0001C26.6839 48.9727 0.164117 75.3831 0.0820968 108C0.0547568 124.021 8.58482 138.046 21.3799 145.729Z" fill="url(#paint0_linear)"/>
<path d="M61.9796 82.1087C70.209 82.1361 77.9188 84.4326 84.5078 88.3696C93.0378 93.5095 99.6814 101.465 103.154 110.952C104.876 115.682 105.833 120.795 105.806 126.126C105.778 134.355 103.482 142.065 99.5447 148.654C91.8349 161.449 70.537 169.815 61.925 169.597C93.9674 170.389 120.925 143.624 121.007 111.007C121.034 94.9859 112.504 80.9605 99.7088 73.2506C93.1198 69.2863 85.4373 66.9898 77.1807 66.9898C71.8494 66.9898 66.7368 67.9193 62.007 69.6417C52.52 73.1139 44.5641 79.7575 39.4242 88.2876C35.4599 94.8765 33.1633 102.559 33.1633 110.816C33.1907 94.9312 46.0951 82.0814 61.9796 82.1087Z" fill="url(#paint1_linear)"/>
<path d="M58.9724 169.952C74.9936 169.979 89.019 161.449 96.7288 148.654C100.693 142.065 102.99 134.383 102.99 126.126C102.99 120.795 102.06 115.682 100.338 110.952C96.8655 101.465 90.2219 93.5095 81.6919 88.3696C75.1029 84.4053 67.4204 82.1087 59.1637 82.1087C75.0483 82.1361 87.898 95.0405 87.8434 110.925C87.816 119.154 85.5195 126.864 81.5825 133.453C76.4426 141.983 68.4867 148.627 58.9997 152.099C54.2699 153.821 49.1573 154.778 43.826 154.751C35.5967 154.724 27.8868 152.427 21.2979 148.49C8.50281 140.78 -0.0272551 126.755 8.48412e-05 110.734C-0.0545951 143.378 26.3285 169.87 58.9724 169.952Z" fill="url(#paint2_linear)"/>
<defs>
<linearGradient id="paint0_linear" x1="12.5157" y1="100.501" x2="83.9765" y2="100.501" gradientUnits="userSpaceOnUse">
<stop stop-color="#ABDEFC"/>
<stop offset="0.668" stop-color="#3683CB"/>
<stop offset="1" stop-color="#0059B5"/>
</linearGradient>
<linearGradient id="paint1_linear" x1="77.085" y1="82.9979" x2="77.085" y2="166.005" gradientUnits="userSpaceOnUse">
<stop stop-color="#ABDEFC"/>
<stop offset="0.668" stop-color="#3683CB"/>
<stop offset="1" stop-color="#0059B5"/>
</linearGradient>
<linearGradient id="paint2_linear" x1="51.4948" y1="90.351" x2="51.4948" y2="168.598" gradientUnits="userSpaceOnUse">
<stop stop-color="#ABDEFC"/>
<stop offset="0.1144" stop-color="#A2D7F8"/>
<stop offset="0.3046" stop-color="#88C3EE"/>
<stop offset="0.5473" stop-color="#5FA3DC"/>
<stop offset="0.8299" stop-color="#2676C5"/>
<stop offset="1" stop-color="#0059B5"/>
</linearGradient>
</defs>
</svg>
