<svg width="400" height="439" viewBox="0 0 400 439" fill="none" xmlns="http://www.w3.org/2000/svg">
<g filter="url(#filter0_d)">
<path d="M69.957 338.789C66.648 339.824 63.0455 344.362 64.0771 351.254C64.547 354.365 66.2627 358.574 66.8514 360.452C67.8956 363.743 69.1307 368.898 67.4942 379.619C65.422 393.04 60.4746 402.319 49.3377 402.105C41.9131 402.105 35.0933 396.328 34.285 381.475C33.4496 367.445 34.501 361.478 36.7587 349.108C37.7831 343.52 38.1899 338.783 33.6621 339.613C27.8956 340.837 26.2411 343.115 24.3813 349.519C20.8796 361.478 20.2765 369.927 20.6708 378.385C21.5061 396.328 29.5375 408.084 47.694 408.484C68.7256 408.907 77.1836 388.484 77.9956 371.573C78.6221 359.192 78.4133 350.543 76.5571 343.945C75.1186 339.615 73.6676 337.748 69.957 338.789Z" fill="#1766a6"/>
<path d="M369.081 362.299C349.691 362.299 345.579 391.382 342.484 391.382C337.326 391.382 338.977 368.077 335.254 368.077C331.952 368.069 330.336 372.007 329.891 373.847C327.334 384.454 319.584 400.051 308.024 400.051C305.349 400.051 300.605 399.012 300.605 396.331C300.605 393.443 318.767 393.044 318.767 379.217C318.767 374.07 314.025 366.84 307.009 366.84C297.73 366.84 288.674 376.954 288.674 390.973C288.674 403.542 296.487 407.67 304.319 407.67C317.935 407.67 326.186 396.527 330.516 387.254C332.584 393.443 333.803 407.67 338.979 407.67C341.032 407.67 342.486 406.636 344.962 401.081C351.135 387.254 357.121 371.371 365.374 371.371C368.46 371.371 366.613 376.954 374.037 376.954C377.533 376.954 380 374.066 380 370.754C380 366.001 375.674 362.299 369.081 362.299ZM304.315 375.098C308.654 375.098 309.898 380.229 308.857 383.336C307.824 386.424 304.117 389.944 298.347 390.968C297.107 387.87 296.484 375.098 304.315 375.098Z" fill="#1766a6"/>
<path d="M145.944 343.729C146.196 347.133 148.202 349.926 152.141 349.926C156.66 349.933 159.96 344.778 159.546 340.024C159.254 336.716 156.66 334.462 153.153 334.462C149.241 334.464 145.555 338.571 145.944 343.729Z" fill="#1766a6"/>
<path d="M281.451 363.34C276.691 363.34 273.185 368.899 273.185 375.492C273.185 381.477 274.631 381.892 274.631 386.021C274.631 391.573 271.747 398.799 268.231 398.799C260.005 398.799 257.931 366.211 252.98 366.211C250.096 366.211 248.649 369.708 247.826 372.19C243.269 385.191 237.112 399.424 225.35 399.424C223.067 399.424 220.403 398.38 218.954 396.945C227.196 391.793 232.77 386.415 232.77 379.827C232.77 374.246 229.055 365.79 222.664 365.79C214.62 365.79 205.336 377.968 205.336 392.399C205.336 395.093 205.757 396.943 206.173 398.375C205.545 399.214 203.062 400.245 201.008 400.245C195.441 400.245 189.538 394.324 188.834 390.846C192.991 381.873 201.287 371.472 199.766 346.561C199.197 337.08 194.251 331.225 188.071 331.602C179.638 332.122 171.938 350.93 173.167 370.921C173.405 374.833 175.112 385.569 177.504 390.88C173.32 397.584 168.004 398.583 164.914 398.583C160.57 398.583 153.979 396.108 153.986 386.013C157.09 377.545 155.027 367.859 150.69 367.859C144.506 367.859 142.443 378.771 142.236 386.411C140.18 390.959 137.904 394.668 134.802 394.668C125.528 394.668 124.713 365.787 117.895 365.787C112.328 365.787 102.759 384.143 99.8608 384.143C98.2225 384.143 96.7678 378.945 95.7272 373.843C95.4391 372.415 95.1637 370.685 94.2365 370.601C92.3983 370.43 90.1083 372.007 89.2604 374.223C88.4052 376.412 86.8749 383.288 85.2078 389.56C84.2122 393.173 81.7547 400.812 81.4631 403.668C81.2488 405.731 82.1166 407.27 84.178 407.484C89.3072 408.014 108.202 384.773 114.181 384.773C121.825 384.773 123.663 407.661 132.339 407.661C137.492 407.661 142.234 394.475 145.334 394.475C148.832 394.475 150.483 407.661 160.381 407.661C172.768 407.661 176.883 399.615 180.601 399.615C183.681 399.615 186.99 407.454 194.617 407.454C199.361 407.454 203.501 406.012 208.44 402.703C211.322 406.012 214.818 407.661 218.136 407.661C238.532 407.661 244.308 389.304 248.451 389.304C252.159 389.304 251.336 407.454 261.874 407.454C275.879 407.454 285.381 382.91 285.381 369.706C285.376 366.21 284.331 363.34 281.451 363.34ZM186.15 380.875C184.918 380.963 183.6 379.599 183.066 370.734C182.227 357.148 184.128 344.229 188.231 343.983C191.329 343.768 192.724 346.37 193.083 352.136C193.875 364.908 188.423 380.738 186.15 380.875ZM216.066 393.042C215.225 391.991 213.391 389.537 213.391 384.361C213.391 377.762 217.704 375.706 219.58 375.706C221.829 375.706 223.699 378.596 223.699 382.089C223.699 386.213 222.034 391.175 216.066 393.042Z" fill="#1766a6"/>
<path d="M319.737 63.3609C316.118 63.3609 311.407 66.7528 306.474 66.7528C304.942 66.7528 302.978 66.7528 301.114 66.2072C302.974 67.6295 302.645 70.8053 303.628 72.7785C304.834 75.1802 307.027 75.1802 308.557 75.1802C313.16 75.1802 322.886 71.2446 322.879 66.4215C322.882 64.8948 322.119 63.3609 319.737 63.3609Z" fill="#1766a6"/>
<path d="M308.452 79.3443C304.836 79.3443 303.743 81.8576 303.743 83.1701C303.743 86.2379 306.704 87.5485 310.969 87.5485C322.337 87.5485 332.752 78.4658 332.752 70.4795C332.752 66.7545 330.991 63.6921 326.504 63.1448C327.271 64.1296 327.597 64.8966 327.597 66.6483C327.595 72.6669 318.423 79.3443 308.452 79.3443Z" fill="#1766a6"/>
<path d="M332.635 80.3255C327.592 90.5065 314.368 92.5859 310.093 92.1466C311.524 102.538 327.27 116.55 331.535 116.221C334.394 115.98 335.483 102.65 335.483 92.1466C335.483 86.1262 335.814 81.4201 332.635 80.3255Z" fill="#1766a6"/>
<path d="M69.5754 201.575C72.2003 207.045 75.0413 207.7 82.0446 208.137C77.776 204.416 77.2377 201.354 77.2377 198.396C77.2377 192.595 83.0402 182.207 86.7525 174.986C91.5684 165.68 97.0451 151.783 97.0451 145.874C97.0451 143.356 96.0567 142.148 94.9639 142.148C93.7594 142.148 92.4452 143.793 91.4586 146.859C89.7087 152.768 84.241 164.582 81.5027 164.582C80.9536 164.582 80.7393 164.038 80.7393 163.379C80.7393 159.112 87.4096 144.013 87.4096 138.759C87.4096 137.335 86.7525 135.913 85.3302 135.913C80.8456 135.913 76.2529 160.977 73.6226 160.977C72.6378 160.977 72.0887 160.318 72.0887 158.237C72.0887 154.084 74.6074 146.528 74.6074 141.386C74.6074 139.634 74.1699 138.212 72.744 138.212C66.7237 138.212 67.4888 160.977 63.7729 160.977C62.7863 160.977 61.5837 160.536 61.5837 155.393C61.5837 150.577 62.0211 147.738 62.0211 146.314C62.0211 145.435 61.6899 144.78 60.7087 144.78C57.315 144.78 54.5839 156.919 54.5839 168.962C54.5839 182.54 57.2052 190.953 60.5989 190.953C63.9889 190.953 68.8066 182.749 68.8066 179.688C68.8066 178.376 68.0433 177.501 67.1612 176.077C64.5344 171.808 67.0603 166.998 69.1361 166.998C71.9789 166.998 72.0887 169.507 75.7038 172.579C77.1279 173.783 77.668 175.096 77.668 176.626C77.668 184.393 61.2578 195.337 61.2578 214.052C61.2578 235.719 77.6679 239.552 79.7491 243.268C91.1309 222.589 57.8623 224.884 69.5754 201.575Z" fill="#1766a6"/>
<path d="M90.796 186.472C88.2774 186.472 87.6202 184.18 86.7435 184.18C86.0882 184.18 85.7587 186.148 85.7587 186.694C85.7641 190.741 88.7221 193.04 91.6746 193.04C96.2763 193.04 100.1 189.641 100.1 182.103V170.937C100.1 166.668 100.43 161.858 103.28 158.457C102.95 159.885 102.95 161.417 102.95 162.839C102.95 172.253 108.198 178.711 108.198 187.792C108.198 191.178 107.213 193.043 104.594 193.043C102.075 193.043 102.295 190.744 101.744 190.744C101.31 190.744 100.651 192.165 100.651 193.699C100.651 195.998 102.293 199.607 106.888 199.607C110.828 199.607 113.999 195.998 113.999 191.947C113.999 182.106 106.34 171.157 106.34 160.653C106.34 156.055 107.541 152.995 108.529 150.58C108.529 172.361 127.019 188.227 127.019 197.307C127.019 199.388 125.489 201.033 123.191 201.033C120.676 201.033 119.47 199.058 119.47 197.524C119.47 196.759 119.359 196.543 119.033 196.543C118.379 196.543 116.408 198.731 116.408 201.582C116.408 205.189 119.359 209.572 124.833 209.572C131.063 209.572 134.46 204.314 134.46 199.609C134.46 188.123 112.029 170.719 112.029 152.12C112.029 148.944 112.571 143.8 114.874 139.863C100.423 149.156 95.9378 161.527 95.9378 172.359C95.9378 181.773 95.612 186.472 90.796 186.472Z" fill="#1766a6"/>
<path d="M280.115 91.819C290.08 91.819 298.489 88.4235 298.489 82.8424C298.489 78.0283 293.783 67.7393 290.521 67.7393C288.44 67.7393 284.929 70.0384 282.196 70.0384C278.693 70.0384 279.679 65.6653 275.841 65.6653C274.968 65.6653 273.983 65.8868 272.998 66.4233C265.023 70.366 258.853 68.8897 257.461 69.8205C257.137 70.0384 256.81 70.2598 256.806 70.9151C256.806 79.1247 265.572 91.819 280.115 91.819ZM268.614 75.9489C269.929 75.9489 273.43 77.7006 278.034 78.464C283.399 79.3444 286.249 79.4506 287.671 79.4506C289.095 79.4506 289.75 79.78 289.75 80.2103C289.75 81.5264 286.139 83.7174 281.319 83.7174C273.211 83.7174 267.954 79.3426 267.954 76.4926C267.957 76.1649 268.175 75.9489 268.614 75.9489Z" fill="#1766a6"/>
<path d="M114.984 277.085C130.958 277.085 134.901 266.029 134.901 258.583C134.901 242.065 124.729 230.46 111.491 230.46C104.266 230.46 97.8084 235.715 97.8084 243.48C97.8084 250.712 103.281 261.539 116.298 261.539C122.426 261.539 126.036 257.154 126.036 252.134C126.036 247.207 121.551 240.425 114.984 240.425C113.016 240.425 111.597 241.728 111.597 243.817C111.597 246.434 115.2 249.068 119.693 249.068C120.783 249.068 121.661 248.849 122.102 248.627C122.318 248.966 122.428 249.504 122.428 249.945C122.428 252.462 120.021 253.998 116.3 253.998C110.719 253.998 105.357 249.839 105.357 243.262C105.357 239.328 108.751 236.488 113.675 236.488C123.409 236.488 129.208 245.127 129.208 253.778C129.208 261.543 124.947 266.037 116.192 266.037C98.6762 266.037 90.1497 250.273 93.9737 234.295C90.3658 235.171 84.5597 240.855 84.5597 249.837C84.5579 260.555 96.0531 277.085 114.984 277.085Z" fill="#1766a6"/>
<path d="M169.696 276.315C168.929 282.767 163.897 284.413 159.955 284.413C157.108 284.413 152.622 283.428 152.411 282.335C150.766 273.035 143.76 267.788 140.693 266.586C140.801 267.569 140.912 268.649 140.912 269.641C140.912 277.525 135.551 282.436 125.487 282.436C123.849 282.436 121.767 282.33 120.234 282C131.723 294.803 139.929 290.098 145.296 292.507C152.303 295.676 157.994 305.416 180.421 305.416C188.632 305.416 196.948 302.243 202.416 298.745C203.397 302.022 206.794 304.98 212.372 304.98C221.894 304.98 227.259 302.027 227.259 299.617C227.259 298.963 227.147 297.973 225.511 297.973C223.865 297.973 224.139 298.412 218.889 298.412C212.76 298.412 202.963 296.002 198.469 285.504C197.702 283.747 196.401 283.747 195.956 283.747C192.897 283.747 188.186 294.585 168.922 294.585C160.822 294.585 157.103 291.623 157.103 290.862C157.103 290.75 157.103 290.64 157.547 290.64C158.314 290.64 161.267 290.979 164.99 290.979C177.137 290.979 186.989 285.397 192.895 278.945C194.968 276.651 195.956 276.315 197.702 276.315C199.24 276.315 200.88 277.631 201.642 279.714C204.382 286.714 210.62 292.293 217.404 292.293C226.593 292.293 226.702 276.543 228.89 275.776C229.223 275.886 229.768 275.994 230.208 275.994C231.295 275.994 233.059 275.224 233.059 273.139C233.059 270.944 230.319 270.291 229.77 269.194C228.681 267.128 229.552 263.52 226.272 263.52C224.081 263.52 223.861 265.268 223.642 266.692C218.941 265.268 214.995 264.611 211.497 264.611C208.98 264.611 206.792 264.946 204.933 265.595C203.62 263.404 198.257 259.136 193.556 257.602C191.698 267.457 182.828 275.224 169.696 276.315ZM214.786 272.156C217.195 272.156 219.161 274.127 219.161 276.543C219.161 278.952 217.195 280.925 214.786 280.925C212.373 280.925 210.4 278.952 210.4 276.543C210.402 274.127 212.373 272.156 214.786 272.156Z" fill="#1766a6"/>
<path d="M312.399 236.914C312.399 223.352 302.535 217.325 293.673 217.325C277.598 217.325 281.766 231.447 262.951 235.713C259.438 236.486 258.457 237.58 258.457 239.116C258.457 241.95 260.099 245.669 262.068 245.669C270.258 245.669 282.969 228.71 285.271 228.71C286.144 228.71 287.241 228.811 287.243 231.115C287.243 237.249 269.5 245.34 269.5 249.722C269.5 252.359 275.742 257.926 281.878 257.926C290.753 257.926 298.72 239.766 300.58 239.766C302.004 239.766 302.549 240.852 302.549 241.948C302.549 246.872 296.536 256.506 286.042 260.664C283.856 261.541 283.525 262.526 283.525 263.293C283.525 265.702 286.263 269.31 288.782 269.31C291.839 269.304 312.399 251.362 312.399 236.914ZM301.006 232.984C299.811 232.984 298.608 232.547 297.834 232.1C296.417 231.454 293.895 229.362 293.895 226.092C293.895 223.129 295.533 221.928 297.071 221.928C301.764 221.928 306.703 226.092 306.706 229.47C306.706 232.1 304.184 232.984 301.006 232.984Z" fill="#1766a6"/>
<path d="M96.3825 129.675C101.744 129.675 104.263 125.079 104.263 120.376C104.263 113.045 97.5869 107.896 92.1121 106.263C89.705 109.106 87.1881 113.924 87.1881 118.844C87.1863 124.753 90.8032 129.675 96.3825 129.675Z" fill="#1766a6"/>
<path d="M59.398 138.871C62.8997 138.871 67.604 136.352 73.1815 131.536C68.9164 132.523 65.6272 133.18 62.6764 133.18C58.7373 133.18 55.6767 131.646 52.3911 126.614C52.3911 134.926 54.9133 138.871 59.398 138.871Z" fill="#1766a6"/>
<path d="M75.2645 124.531C75.2645 128.469 78.3251 130.991 82.1562 130.991C84.1276 130.991 85.5498 130.55 86.4248 129.894C83.3642 126.94 82.2678 123.654 82.2678 120.376C82.2678 118.073 82.5937 116.655 83.0348 115.34C80.5089 115.996 75.2645 119.06 75.2645 124.531Z" fill="#1766a6"/>
<path d="M81.7169 76.4926C81.7169 71.2428 79.3063 63.2529 71.8654 63.2529C67.6022 63.2529 64.5326 66.6447 64.5326 70.6955C64.5326 79.3425 73.1815 82.8406 80.7357 82.8406C81.2794 81.0889 81.7169 78.9069 81.7169 76.4926Z" fill="#1766a6"/>
<path d="M61.5836 87.6548C65.5246 87.6548 68.6968 85.2531 68.6968 85.2531C62.3506 83.3879 58.8489 78.6872 58.8525 72.4436C58.8525 71.7847 58.8525 71.2428 58.9605 70.5821C54.9152 72.3356 53.1616 75.8355 53.1616 79.2291C53.158 84.1567 56.8829 87.6548 61.5836 87.6548Z" fill="#1766a6"/>
<path d="M91.3433 80.9791C88.9381 80.9791 86.9703 82.954 86.9703 85.3575C86.9703 87.7646 88.9381 89.7395 91.3433 89.7395C93.7522 89.7395 95.7254 87.7682 95.7254 85.3575C95.7254 82.954 93.754 80.9791 91.3433 80.9791Z" fill="#1766a6"/>
<path d="M92.6576 95.2072C92.6576 97.6143 94.6326 99.5874 97.0432 99.5874C99.4449 99.5874 101.42 97.6143 101.42 95.2072C101.42 92.8037 99.4449 90.8324 97.0432 90.8324C94.6308 90.8324 92.6576 92.8019 92.6576 95.2072Z" fill="#1766a6"/>
<path d="M56.224 116.873C56.116 117.425 56.116 117.969 56.116 118.514C56.116 123.656 58.8471 126.504 62.4586 126.504C65.1843 126.504 68.3655 124.864 71.2047 121.249C70.0056 121.465 68.5816 121.577 67.2655 121.577C63.2237 121.575 58.8489 120.486 56.224 116.873Z" fill="#1766a6"/>
<path d="M86.3096 93.8929C84.9125 91.9864 85.4472 90.2977 84.5579 89.4047C84.0556 88.8934 82.4857 88.861 80.5071 88.6413C79.8518 88.5693 78.9732 88.5297 78.0982 88.5297C74.4922 88.5297 70.2109 88.9744 65.4076 92.035C55.918 98.0932 57.3132 108.123 55.7866 110.638C55.5777 110.975 55.4535 111.407 55.4535 111.844C55.4535 112.829 56.5499 113.924 57.5275 113.924C58.4061 113.924 58.9534 113.706 59.3908 113.706C62.0157 113.706 64.9719 115.564 69.2351 115.564C71.7484 115.564 74.7082 114.795 78.4241 112.942C86.3042 108.998 89.372 99.2598 89.372 97.6161C89.3756 95.5331 87.7049 95.8067 86.3096 93.8929ZM71.428 110.42C67.8183 110.42 63.8791 105.935 63.8791 101.883C63.8791 99.6973 65.521 96.9571 66.7219 96.9571C67.1593 96.9571 67.3808 97.2884 67.487 98.0572C68.1441 103.417 71.6494 106.485 74.9314 108.011C75.2627 108.229 75.4805 108.337 75.4805 108.557C75.4805 109.326 73.3993 110.42 71.428 110.42ZM81.7205 103.636C77.8894 103.636 74.827 97.8357 74.827 94.5465C74.827 92.4725 76.0314 92.2564 77.6697 92.2564C78.4331 92.2564 78.7662 92.3663 79.3117 92.6939C80.2929 93.243 80.2929 95.4268 81.4973 97.0688C82.257 98.1004 84.349 99.3714 84.349 100.137C84.3508 101.663 83.4687 103.636 81.7205 103.636Z" fill="#1766a6"/>
<path d="M227.48 124.421C224.083 124.421 221.245 127.271 221.245 130.66C221.245 134.055 224.083 136.896 227.48 136.896C230.867 136.896 233.722 134.055 233.722 130.66C233.722 127.271 230.867 124.421 227.48 124.421Z" fill="#1766a6"/>
<path d="M266.202 116.984C263.712 116.984 261.627 119.06 261.627 121.575C261.627 124.097 263.712 126.175 266.202 126.175C268.722 126.175 270.809 124.097 270.809 121.575C270.807 119.06 268.722 116.984 266.202 116.984Z" fill="#1766a6"/>
<path d="M255.385 98.9321C255.385 101.224 257.245 103.087 259.55 103.087C261.854 103.087 263.714 101.226 263.714 98.9321C263.714 96.6295 261.851 94.7697 259.55 94.7697C257.249 94.7697 255.385 96.6295 255.385 98.9321Z" fill="#1766a6"/>
<path d="M229.333 110.859C226.933 110.859 224.96 112.831 224.96 115.234C224.96 117.64 226.933 119.611 229.333 119.611C231.752 119.611 233.722 117.64 233.722 115.234C233.722 112.829 231.749 110.859 229.333 110.859Z" fill="#1766a6"/>
<path d="M267.084 130.224C264.258 130.224 261.955 132.523 261.955 135.362C261.955 138.212 264.256 140.513 267.084 140.513C269.932 140.513 272.228 138.214 272.228 135.362C272.229 132.521 269.932 130.224 267.084 130.224Z" fill="#1766a6"/>
<path d="M250.238 129.237C250.238 131.646 252.21 133.619 254.627 133.619C257.033 133.619 259.002 131.646 259.002 129.237C259.002 126.834 257.033 124.864 254.627 124.864C252.208 124.863 250.238 126.836 250.238 129.237Z" fill="#1766a6"/>
<path d="M247.17 112.395C247.17 116.221 250.346 119.391 254.181 119.391C258.014 119.391 261.195 116.221 261.195 112.395C261.195 108.559 258.018 105.39 254.181 105.39C250.344 105.388 247.17 108.557 247.17 112.395Z" fill="#1766a6"/>
<path d="M235.585 109.432C235.585 111.734 237.449 113.6 239.724 113.6C242.02 113.6 243.887 111.734 243.887 109.432C243.887 107.14 242.02 105.277 239.724 105.277C237.449 105.277 235.585 107.138 235.585 109.432Z" fill="#1766a6"/>
<path d="M253.747 152.221C257.906 152.221 261.307 148.825 261.307 144.668C261.307 140.513 257.902 137.117 253.747 137.117C249.583 137.117 246.189 140.513 246.189 144.668C246.187 148.825 249.581 152.221 253.747 152.221Z" fill="#1766a6"/>
<path d="M267.513 144.89C265.354 144.89 263.381 146.749 263.381 148.937C263.381 151.452 265.354 153.207 267.513 153.207C269.925 153.207 271.788 151.454 271.788 148.937C271.788 146.751 269.929 144.89 267.513 144.89Z" fill="#1766a6"/>
<path d="M235.909 137.994C235.909 140.403 237.882 142.367 240.272 142.367C242.68 142.367 244.655 140.403 244.655 137.994C244.655 135.585 242.68 133.618 240.272 133.618C237.881 133.618 235.909 135.587 235.909 137.994Z" fill="#1766a6"/>
<path d="M248.379 123.656C248.379 119.939 245.415 116.984 241.69 116.984C237.991 116.984 235.036 119.937 235.036 123.656C235.036 127.383 237.992 130.332 241.69 130.332C245.413 130.332 248.379 127.381 248.379 123.656Z" fill="#1766a6"/>
<path d="M242.79 270.401C241.696 270.401 240.493 271.492 239.289 272.919C236.689 275.985 233.29 281.678 233.29 287.911C233.29 292.286 236.689 296.651 243.008 296.651C263.494 296.651 278.801 283.858 278.801 273.465C278.801 267.563 275.299 265.149 272.771 265.149C269.929 267.345 263.273 272.259 252.208 272.259C246.295 272.264 243.665 270.401 242.79 270.401ZM266.202 274.788C266.756 274.788 267.405 275.112 267.405 277.084C267.405 279.485 266.317 282.657 262.396 285.167C259.658 287.038 255.931 288.573 250.456 288.667C251.331 286.049 251.994 283.306 251.994 280.693C251.994 279.816 251.884 279.156 251.776 278.173H253.2C261.849 278.182 265.575 274.788 266.202 274.788Z" fill="#1766a6"/>
<path d="M256.81 253.231C248.814 253.231 244.542 256.835 244.542 258.369V263.401C244.542 265.487 249.365 267.565 255.281 267.565C259.987 267.565 264.258 266.361 267.086 263.952C267.973 263.196 268.177 261.982 268.177 260.771V258.257C268.175 255.08 263.383 253.231 256.81 253.231Z" fill="#1766a6"/>
<path d="M236.788 178.813C238.1 178.813 238.514 179.687 238.514 180.236C238.514 182.101 235.36 185.158 235.36 188.224C235.36 192.05 239.829 194.352 242.787 194.352C246.29 194.352 247.604 193.04 247.604 190.847C247.604 188.116 242.787 184.501 242.787 181.554C242.787 179.91 244.324 179.688 246.405 179.688C250.787 179.688 252.429 180.347 252.429 181.334C252.429 182.645 250.569 184.944 250.569 185.709C250.569 186.146 250.787 186.911 251.884 186.911C255.497 186.911 267.959 184.396 267.959 181.883C267.959 179.145 256.161 170.168 253.747 170.168C253.198 170.168 252.867 170.606 252.867 171.047C252.867 171.812 253.088 173.016 253.088 174.115C253.088 176.081 252.316 176.406 250.02 176.406C247.504 176.406 243.669 175.539 243.669 171.706C243.669 164.043 258.124 165.903 259.55 158.902C253.304 158.902 250.134 154.633 245.971 154.633C244.324 154.633 241.582 155.504 241.582 159.339C241.582 160.542 242.021 162.727 242.021 164.483C242.021 166.236 241.582 167.545 239.726 167.545C237.884 167.545 237.665 165.467 237.665 163.057C237.665 160.983 238.102 158.569 238.102 156.925C238.102 145.656 225.613 150.363 224.412 141.067C221.454 146.533 220.369 150.474 220.365 153.646C220.365 165.354 236.347 164.151 236.347 172.471C236.347 174.442 234.815 175.749 233.385 175.749C230.748 175.749 228.774 170.06 224.731 170.06C222.54 170.06 221.017 171.706 221.017 174.99C221.017 177.503 221.555 179.368 221.555 181.665C221.555 186.362 219.593 188.661 217.294 190.741C231.637 189.533 232.73 178.813 236.788 178.813Z" fill="#1766a6"/>
<path d="M285.26 185.16C293.664 185.16 297.387 198.07 298.815 198.07C300.338 198.07 299.361 192.269 300.12 191.392C300.455 190.953 301.22 190.847 302.097 190.847C303.523 190.847 305.379 191.175 306.591 191.175C307.358 191.175 307.797 191.068 307.905 190.741C308.013 189.641 301.224 187.459 301.224 185.601C301.224 183.957 304.938 180.349 304.938 179.253C304.938 178.921 304.724 178.707 304.393 178.707C302.754 178.707 297.607 182.645 290.296 182.645C287.228 182.645 285.034 182.211 285.034 180.021C285.034 177.829 286.908 176.189 289.97 174.878C293.146 173.456 299.798 173.456 299.798 171.81C299.798 170.714 293.452 170.498 293.452 169.295C293.452 167.875 295.969 164.259 295.969 162.616C295.969 162.51 295.861 162.067 295.533 162.067C294.331 162.067 291.394 165.682 289.423 165.682C287.662 165.682 286.134 161.199 284.488 161.087C284.056 161.087 283.723 161.417 283.723 162.176C283.723 163.93 284.488 167.325 284.488 171.704C284.488 175.537 282.52 179.031 280.223 179.031C277.485 179.031 276.604 175.855 276.604 173.126C276.604 169.18 278.689 164.585 278.682 160.535C278.682 159.553 278.457 159.222 277.915 159.222C276.266 159.222 273.857 163.601 272.112 163.601C271.012 163.601 268.71 158.241 267.068 158.241C266.623 158.241 266.517 159.116 266.517 160.214C266.517 161.748 266.738 163.712 266.738 164.701C266.738 166.011 265.113 166.121 263.474 166.121C262.378 166.121 259.751 166.121 259.751 167C259.751 167.876 262.047 168.964 264.13 170.278C268.161 172.905 274.293 175.643 274.293 181.989C274.293 187.678 266.081 191.724 260.518 192.71C257.892 193.153 255.045 193.697 255.045 194.467C255.045 195.778 262.275 195.998 262.275 197.636C262.275 198.513 259.096 202.783 259.096 204.092C259.096 204.31 259.317 204.42 259.535 204.42C260.745 204.42 264.247 201.469 265.863 201.469C268.06 201.469 267.621 207.704 269.263 207.704C271.02 207.704 270.472 198.401 271.236 195.996C272.55 191.835 275.508 187.678 278.135 187.678C281.316 187.678 281.643 193.369 281.643 195.996C281.643 201.581 277.589 207.268 277.589 209.787C277.589 210.109 277.807 210.438 278.135 210.438C279.341 210.438 282.191 206.829 283.498 206.829C285.03 206.829 288.211 212.844 289.527 212.844C290.181 212.844 290.292 212.194 290.292 211.645C290.292 209.9 289.419 206.94 289.419 204.967C289.419 202.783 296.406 203.982 296.406 202.677C296.406 202.015 293.337 200.812 291.499 199.604C287.446 197.197 283.176 192.161 283.176 187.79C283.177 186.144 284.054 185.16 285.26 185.16Z" fill="#1766a6"/>
<path d="M225.404 258.695C245.091 258.695 254.514 242.828 254.626 230.786C251.007 234.073 241.26 235.054 236.246 235.054C221.132 235.054 217.195 227.392 215.11 227.392C213.034 227.392 213.034 230.786 213.034 231.992C213.034 233.195 212.926 233.634 212.269 233.634C211.502 233.634 210.629 233.195 209.972 233.195C209.316 233.195 208.877 233.746 208.877 234.729C208.877 239.332 214.68 242.711 220.59 242.711C228.143 242.711 231.866 239.546 233.843 239.546C234.716 239.546 235.155 240.542 235.155 241.069C235.155 242.279 233.843 243.707 233.843 244.474C233.843 246.226 237.558 244.812 237.558 246.881C237.558 249.515 233.072 251.812 226.056 251.812C212.49 251.812 203.517 242.398 203.517 233.758C203.517 217.443 221.132 222.702 221.132 216.358C221.132 214.167 219.049 213.175 217.63 212.961C219.6 210.66 222.005 210.111 224.418 210.111C226.277 210.111 228.033 210.44 229.558 210.44C231.642 210.44 233.835 209.677 233.835 207.27C233.835 205.842 232.629 204.094 227.59 203.435C228.135 200.049 235.25 201.802 235.254 198.952C235.254 196.869 231.194 195.234 226.385 195.234C207.669 195.234 193.99 210.442 193.99 227.182C193.994 242.274 204.938 258.695 225.404 258.695Z" fill="#1766a6"/>
<path d="M230.431 229.695C233.5 229.695 235.585 227.279 235.585 224.449C235.585 220.288 231.302 216.237 224.963 216.237C226.052 217.325 226.385 218.423 226.385 219.517C226.385 221.154 225.62 222.911 225.62 224.771C225.62 227.392 227.592 229.695 230.431 229.695Z" fill="#1766a6"/>
<path d="M239.506 197.631C241.038 199.492 241.58 201.354 241.58 203.212C241.58 207.92 237.99 212.736 237.99 217.328C237.99 223.457 242.02 227.284 247.612 227.284C253.747 227.284 257.251 222.148 257.251 216.569C257.245 208.469 251.005 199.823 239.506 197.631ZM247.829 214.925C246.295 214.925 245.199 213.719 245.199 212.186C245.199 211.31 245.746 209.995 245.86 208.906C246.074 207.484 245.746 206.17 246.623 206.17C248.598 206.17 250.678 209.344 250.678 211.641C250.678 213.391 249.579 214.925 247.829 214.925Z" fill="#1766a6"/>
<path d="M267.084 228.384C271.572 228.384 274.638 224.78 274.638 220.504C274.638 214.702 269.383 209.781 261.188 209.239C261.955 210.437 262.283 211.641 262.283 212.734C262.283 215.802 260.201 218.644 260.201 221.825C260.207 225.43 262.943 228.384 267.084 228.384Z" fill="#1766a6"/>
<path d="M114.985 95.0956C109.624 95.0956 112.031 86.1263 109.298 86.1263C106.997 86.1263 106.342 90.9404 106.342 92.8019C106.342 99.0383 110.391 105.604 119.359 105.604C128.994 105.604 134.354 101.118 140.154 94.9894C141.244 101.555 144.857 112.831 154.485 112.831C159.733 112.831 163.46 108.447 163.897 103.417C163.242 104.07 162.252 104.619 161.159 104.619C159.191 104.619 158.754 101.771 158.754 99.2598C158.754 95.2072 159.955 90.8324 161.814 90.8324C162.799 90.8324 163.352 91.4859 163.57 94.4421C163.793 96.7411 163.57 99.2598 164.994 99.2598C166.416 99.2598 167.287 94.7697 167.287 91.7091C167.287 84.704 164.007 78.4658 156.782 78.4658C151.205 78.4658 146.056 83.1719 142.333 89.3003C142.556 88.094 142.666 86.7816 142.666 85.5808C142.666 77.0435 138.075 69.3831 129.421 69.3831C122.425 69.3831 116.08 73.4302 113.45 81.3085C114.213 80.5398 116.514 79.1247 118.377 79.1247C120.567 79.1247 121.224 80.9809 121.224 83.937C121.224 85.912 120.786 88.2039 120.019 90.3967C118.703 93.9992 116.302 95.0956 114.985 95.0956ZM156.122 85.579C156.784 85.579 157.004 87.1075 157.004 88.5297C157.004 95.0956 153.94 105.604 151.208 105.604C150.55 105.604 149.999 104.619 149.995 102.32C149.995 96.4116 153.824 85.579 156.122 85.579ZM147.482 89.0788C147.916 89.0788 148.36 89.5163 148.36 91.3815C148.36 95.2072 146.607 99.0401 145.402 99.0401C144.313 99.0401 143.652 97.2884 143.435 93.3475C145.188 90.3949 146.389 89.0788 147.482 89.0788ZM136.98 82.4032C138.289 82.4032 139.166 84.8138 139.166 86.9994C139.166 88.6413 139.166 89.9556 138.95 91.3797C136.098 94.5429 134.564 95.8643 133.36 95.8643C132.708 95.8643 132.058 94.7697 132.055 93.4627C132.056 91.16 133.689 82.4032 136.98 82.4032ZM131.291 74.523C132.058 74.523 132.38 75.1802 132.38 76.0569C132.38 79.4524 128.115 99.5875 124.4 99.5875C123.408 99.5875 123.193 98.7107 123.195 97.9455C123.195 93.6787 127.899 74.523 131.291 74.523Z" fill="#1766a6"/>
<path d="M103.065 143.793C106.897 135.254 117.072 131.425 123.638 131.425C124.956 131.425 125.935 131.535 126.702 131.644C123.308 134.705 122.545 140.068 122.322 143.681C122.217 145.433 121.555 145.547 120.347 145.547C120.347 149.153 123.199 154.518 123.199 157.253C123.199 158.237 122.65 159.114 122.106 159.334C122.106 164.148 126.915 167.649 126.915 170.71C126.915 171.475 126.7 172.136 126.367 172.465C126.7 174.437 131.993 177.749 132.679 179.408C133.52 181.426 134.467 181.768 135.014 181.768C136.874 181.768 139.821 179.577 139.821 177.605C139.821 176.95 139.272 176.183 138.842 175.852C136.759 174.325 135.666 171.041 134.789 168.856C134.022 168.856 133.034 168.532 132.685 167.243C132.087 164.976 132.058 160.756 131.18 158.237C129.757 157.91 129.098 157.362 129.098 154.408C129.098 152.986 129.979 147.401 129.979 145.43C129.323 145.43 128.448 144.992 128.448 143.68C128.448 140.182 131.952 137.445 132.931 132.959C139.171 137.55 140.698 142.256 140.698 146.42C140.698 148.602 140.369 150.683 139.931 152.658C144.529 150.355 151.423 146.964 151.423 140.07C151.423 136.017 149.561 131.533 137.196 129.781C141.024 128.359 145.843 127.595 149.891 127.595C156.898 127.595 160.943 129.781 161.814 134.703C163.24 132.518 164.333 129.999 164.333 127.703C164.333 122.338 159.843 118.84 154.156 118.84C147.48 118.84 141.573 122.337 135.221 126.611C138.077 120.702 140.034 117.2 143.543 117.2C144.088 117.2 144.635 117.31 145.184 117.422C143.87 112.609 138.948 107.898 136.32 107.898C131.613 107.898 131.397 113.6 131.397 125.08C127.894 117.533 122.097 109.432 115.31 109.432C110.713 109.432 108.969 112.5 108.969 117.856C108.969 118.952 109.077 120.596 109.296 121.575C109.846 119.719 111.597 118.95 113.779 118.95C118.493 118.95 124.18 122.558 127.899 127.489C123.634 126.724 119.474 125.955 115.976 125.955C113.783 125.955 111.815 126.175 110.173 126.94C107.001 128.361 102.734 133.068 102.734 140.182C102.736 141.28 102.848 142.479 103.065 143.793Z" fill="#1766a6"/>
<path d="M318.968 227.286C326.391 220.727 330.555 211.092 330.555 202.231C330.555 193.911 326.179 186.8 320.695 186.8C315.902 186.8 313.272 190.626 313.272 194.792C313.272 197.305 314.257 199.933 316.23 201.8C314.257 199.827 311.526 198.839 308.015 198.839C304.074 198.839 300.778 201.908 300.778 206.503C300.781 217.22 318.858 212.518 318.968 227.286Z" fill="#1766a6"/>
<path d="M253.744 85.9102C253.744 84.2665 252.977 80.6514 251.661 78.9069C251.661 88.7512 244.538 92.6939 238.325 92.6939C236.792 92.6939 235.364 92.4743 234.055 91.9288C235.367 90.8324 236.46 88.861 236.46 87.6529C236.46 86.8878 235.812 86.4539 234.827 86.4539C234.055 86.4539 232.629 86.778 231.417 86.778C228.35 86.778 225.838 85.5771 222.99 82.8406C221.024 85.5789 220.149 89.2966 220.146 92.8019C220.146 98.7107 222.437 104.29 224.96 104.729C226.382 104.839 226.272 100.675 228.346 100.675C229.009 100.675 231.643 102.43 236.901 102.43C244.978 102.432 253.744 97.8375 253.744 85.9102Z" fill="#1766a6"/>
<path d="M237.119 78.2461C237.119 78.9051 237.45 79.5586 238.212 79.8881C241.037 81.1987 242.79 83.2799 243.667 85.1397C248.593 82.4013 250.57 74.8525 250.57 70.4759C250.57 69.1598 250.57 67.2982 249.363 67.2982C248.487 67.2982 247.39 68.3946 246.299 68.3946C245.307 68.3946 242.572 64.6733 235.589 64.6733C227.592 64.6733 224.301 70.5821 224.301 75.398C224.301 76.7104 224.632 78.0247 225.068 79.1211C225.721 76.0533 229.007 72.6651 233.833 72.6651C235.364 72.6651 238.628 73.4266 239.501 74.8507C238.208 75.5078 237.116 77.0417 237.119 78.2461Z" fill="#1766a6"/>
<path d="M155.034 24.4086C155.034 26.3764 161.928 30.6468 165.105 30.6468C166.961 30.6468 167.511 28.1281 167.511 25.5014C167.511 22.2194 166.094 22.1096 163.246 22.1096C159.634 22.1114 155.034 23.0944 155.034 24.4086Z" fill="#1766a6"/>
<path d="M167.069 66.4215C167.069 65.5537 166.848 64.6805 166.416 64.0198C164.445 61.2833 150.548 50.339 147.48 50.339C147.149 50.339 146.931 50.6703 146.931 50.9979C146.931 54.8273 160.61 73.54 163.242 73.54C165.433 73.54 167.069 69.7125 167.069 66.4215Z" fill="#1766a6"/>
<path d="M86.0881 26.1585C88.5024 26.1585 92.3245 25.0657 95.0647 25.0657C96.5985 25.0657 98.0226 25.3916 98.0226 26.8139C98.0226 29.5522 92.1085 34.4779 92.1085 36.6671C92.1085 37.3243 92.654 37.5457 93.2013 37.5457C95.3923 37.5457 99.1154 31.961 102.614 31.961C108.414 31.961 104.588 44.3258 107.755 44.3258C111.037 44.3258 109.615 32.1753 114.319 32.1753C118.158 32.1753 120.997 40.6045 123.624 40.6045C124.282 40.6045 124.828 40.059 124.828 39.2921C124.828 37.0002 121.544 32.2869 121.544 29.2263C121.544 27.3648 122.858 26.488 124.608 26.488C127.122 26.488 130.517 28.0219 132.371 28.0219C133.027 28.0219 133.684 27.8058 133.684 27.0407C133.684 24.414 123.953 21.5694 123.953 18.1776C123.955 14.7839 129.314 14.7839 129.314 13.2483C129.314 12.5911 126.032 11.934 121.548 11.934C114.433 11.934 115.419 17.8517 109.95 17.8517C104.259 17.8517 105.674 11.7144 98.4529 11.7144C94.0763 11.7144 90.0345 12.4849 90.0345 13.4679C90.0345 14.7839 95.1727 14.2366 95.1727 17.8517C95.1727 21.6775 84.1168 22.7721 84.1168 25.0711C84.1222 25.8309 84.9971 26.1585 86.0881 26.1585Z" fill="#1766a6"/>
<path d="M63.2201 38.5305C60.705 38.5305 57.4212 39.1786 56.0007 40.4911C54.7981 41.4795 53.8115 44.5473 53.8115 46.7329C53.8115 47.9355 54.1446 49.2462 55.2374 49.2462C58.1882 49.2462 66.5022 41.917 66.5022 39.7259C66.504 38.851 64.7504 38.5305 63.2201 38.5305Z" fill="#1766a6"/>
<path d="M53.2625 32.3949C53.2625 35.6788 74.7082 32.6128 74.7082 36.01C74.7082 39.7259 56.0008 55.8084 56.0008 61.1717C56.0008 62.3761 56.8776 62.9252 58.0748 62.9252C63.7675 62.9252 78.5321 52.0925 82.5847 52.0925C84.0088 52.0925 84.1186 53.8406 84.1186 55.3745C84.1186 58.2227 83.1356 62.5939 83.1356 65.7733C83.1356 68.2866 83.7927 70.0366 85.9783 70.0366C90.0345 70.0366 93.745 63.143 96.4906 63.143C99.9886 63.143 97.911 83.3861 103.164 83.3861C107.647 83.3861 109.507 61.5029 112.353 61.5029C115.203 61.5029 117.502 67.8491 120.127 67.8491C123.404 67.8491 121.874 56.7968 125.381 56.7968C129.206 56.7968 140.151 69.9303 145.075 69.9303C146.605 69.9303 147.15 68.7223 147.15 67.1902C147.15 61.3895 139.058 48.265 139.058 44.108C139.058 43.0152 139.38 42.6839 140.585 42.6839C144.85 42.6839 157.331 48.5926 163.238 48.5926C165.222 48.5926 166.42 47.5016 166.42 46.0758C166.42 39.5081 148.668 27.5808 148.468 22.4426C148.449 21.9691 148.706 21.5028 149.106 21.0852C152.146 17.877 164.776 15.5365 164.776 12.8036C164.776 11.3867 162.146 11.3867 160.831 11.3867C150.656 11.3867 135.772 15.1062 135.772 18.7141C135.772 22.4408 149.124 31.5218 149.124 36.01C149.124 37.2127 148.36 37.6501 147.152 37.6501C143.436 37.6501 135.337 33.1601 131.509 33.1601C129.756 33.1601 129.095 34.3627 129.095 36.1198C129.095 41.3697 135.335 51.3274 135.335 54.2745C135.335 54.6058 135.223 55.0433 134.786 55.0433C132.814 55.0433 123.521 44.1062 120.234 44.1062C119.033 44.1062 118.919 45.7427 118.919 48.1534V51.8711C118.919 54.388 118.809 55.9219 117.614 55.9219C114.759 55.9219 113.45 47.9337 110.715 47.9337C107.869 47.9337 107.321 62.1547 104.59 62.1547C101.411 62.1547 104.149 46.506 101.085 46.506C97.695 46.506 93.8602 56.9066 91.4514 56.9066C90.58 56.9066 90.3622 56.0263 90.3622 55.2611C90.3622 52.0907 92.2165 46.9471 92.2165 43.8865C92.2165 42.349 91.779 41.4777 90.4738 41.4777C87.0729 41.4777 79.6357 46.9489 76.7948 46.9489C76.3537 46.9489 75.8082 46.7311 75.8082 46.29C75.8082 43.6705 87.7319 35.3493 87.7319 31.6298C87.7319 28.0147 71.3109 30.4254 71.3109 26.2648C71.3109 22.7649 83.0294 19.1516 83.0294 15.5419C83.0294 12.3661 69.1325 10.951 63.7711 10.951C57.3132 10.951 53.8134 11.7072 53.8134 13.5687C53.8134 16.4169 68.479 17.2954 68.479 19.8087C68.4754 22.2194 53.2625 28.6754 53.2625 32.3949Z" fill="#1766a6"/>
<path d="M301.991 26.5924C296.628 26.7041 286.251 29.1147 286.251 30.5352C286.251 32.2833 304.839 34.2529 304.839 42.0232C304.839 47.0534 300.781 47.6043 299.159 47.6043C293.049 47.6043 289.758 41.258 288.116 41.258C287.675 41.258 287.239 41.5893 287.239 42.1384C287.239 43.1196 288.116 45.7427 288.116 48.4828C288.116 55.479 280.34 56.2477 280.34 57.6718C280.34 58.2209 280.56 58.4369 281.427 58.5468C287.127 59.4199 292.941 59.8574 298.383 59.8574C318.199 59.8574 334.394 53.729 334.394 36.4457C334.394 27.0335 331.43 23.8613 331.43 19.2614C331.43 17.7329 332.521 14.5589 335.485 12.8018C330.006 12.8018 329.129 11.1689 325.404 11.1689C320.914 11.1689 317.762 14.2295 317.762 18.8257C317.762 20.3596 318.308 22.7667 318.308 25.9353C318.308 29.77 317.55 33.3797 314.145 33.3797C310.962 33.3797 309.767 31.3021 309.767 28.8915C309.767 24.5202 312.06 21.5641 312.06 18.7141C312.06 13.5705 305.712 12.0384 298.929 12.0384C290.843 12.0384 282.086 14.2313 282.086 15.3259C282.088 17.1856 293.783 16.091 301.991 26.5924ZM325.404 15.1062C326.94 15.1062 328.145 16.3125 328.145 17.8464C328.145 19.3749 326.935 20.5775 325.404 20.5775C323.869 20.5775 322.67 19.3749 322.67 17.8464C322.67 16.3125 323.869 15.1062 325.404 15.1062ZM323.32 30.9781C326.173 31.8548 327.927 34.694 327.927 37.8716C327.927 43.5589 322.448 50.339 307.466 50.339C306.153 50.339 304.839 50.339 303.411 50.2328C316.228 48.1534 323.32 40.7107 323.32 30.9781Z" fill="#1766a6"/>
<path d="M332.41 162.724C327.266 162.724 324.301 171.702 319.287 172.246C322.445 159.114 335.477 152.33 335.477 140.074C335.477 126.177 323.752 121.247 318.851 118.187C310.746 106.594 304.936 97.5062 291.828 97.5062C286.24 97.5062 282.736 98.4946 278.9 98.4946C271.457 98.4946 269.154 95.6447 268.605 95.6447C268.494 95.6447 268.393 95.7563 268.393 96.192C268.393 106.375 273.756 129.677 297.279 129.677C309.873 129.677 315.24 124.864 318.192 124.864C321.346 124.864 331.529 128.362 331.529 139.964C331.529 146.423 326.386 152.989 324.522 152.989C322.769 152.989 320.801 150.028 320.801 146.967C320.801 143.573 322.664 137.225 322.664 133.292C322.664 131.866 322.443 131.099 321.568 131.099C319.613 131.099 310.202 137.006 310.202 144.56C310.202 151.016 319.737 154.961 323.32 156.817C319.737 162.726 317.544 166.56 315.787 172.028C315.787 167.875 311.842 159.447 310.629 156.052C304.717 139.636 302.526 136.57 290.075 135.146C291.932 141.712 313.371 157.584 313.371 173.78C313.371 174.766 313.259 176.185 313.153 176.73C306.697 157.8 295.53 153.427 291.504 148.825C285.03 141.6 288.762 134.604 278.246 130.66C278.903 131.535 279.125 132.631 279.125 133.835C279.125 137.337 277.15 141.712 277.15 144.778C277.15 156.156 290.517 152.768 298.266 159.002C305.925 165.131 310.195 175.204 313.376 186.36C316.439 181.442 318.19 175.535 323.64 175.535C327.151 175.535 328.35 179.91 328.35 182.969C328.35 183.624 328.35 184.177 328.242 184.614C333.495 180.131 336.237 172.903 336.237 168.094C336.239 164.805 335.036 162.724 332.41 162.724ZM311.738 119.831C310.64 119.831 308.555 119.283 307.135 119.283C303.408 119.283 300.778 124.421 298.819 124.421C298.165 124.421 297.829 123.766 297.829 123.217C297.829 121.136 301.548 118.622 301.548 117.204C301.548 116.219 299.906 115.891 299.251 115.891C295.531 115.891 290.296 121.031 287.342 121.031C286.792 121.031 286.135 120.707 286.135 120.05C286.135 118.624 290.08 116.657 290.08 115.124C290.08 113.708 288.44 113.49 287.342 113.49C285.482 113.49 281.867 114.471 279.566 114.471C278.25 114.471 277.267 114.147 277.267 113.16C277.267 110.967 284.385 112.395 284.385 109.765C284.385 108.559 282.198 106.155 282.198 104.843C282.198 104.294 282.743 103.966 283.291 103.966C285.808 103.966 288.438 110.863 291.396 110.863C292.707 110.863 293.041 109.876 293.041 108.451C293.041 107.034 292.816 106.269 292.816 105.062C292.816 103.75 293.34 103.422 293.78 103.422C295.643 103.422 297.281 113.272 302.313 113.272C304.502 113.272 302.972 107.255 304.94 107.255C306.148 107.255 306.474 109.003 306.589 109.984C307.135 116.444 312.942 116.66 312.942 118.957C312.948 119.283 312.613 119.831 311.738 119.831Z" fill="#1766a6"/>
<path d="M219.045 44.9812C219.045 46.8391 226.493 45.5285 226.493 47.8257C226.493 50.1211 221.022 57.7834 221.022 59.9672C221.022 60.5181 221.13 60.5181 221.564 60.5181C223.645 60.5181 229.884 53.3996 231.419 53.3996C233.18 53.3996 233.502 57.6736 233.841 60.1869C234.057 61.5029 234.278 61.6109 234.829 61.6109C236.142 61.6109 238.219 56.579 239.625 56.579C241.697 56.579 247.291 62.3797 256.599 62.3797C269.831 62.3797 282.313 53.0755 282.313 36.6672C282.313 20.7971 271.135 11.4947 255.72 11.4947C248.388 11.4947 243.012 15.108 240.167 15.108C238.441 15.2196 235.814 10.843 234.492 10.843C233.947 10.843 233.4 11.9304 233.4 13.7938C233.4 15.0018 233.4 18.8275 232.087 18.8275C229.455 18.8275 219.285 11.2805 219.285 14.0116C219.285 16.5303 226.063 24.1926 226.063 26.1603C226.063 28.1281 219.393 29.9933 219.393 31.3039C219.393 33.7092 226.506 34.1485 226.506 37.2145C226.492 40.2751 219.045 42.6839 219.045 44.9812ZM255.6 16.6401C266.42 16.6401 272.883 24.0827 272.883 36.5555C272.89 52.3158 261.849 56.2513 255.935 56.2513C248.265 56.2513 243.23 52.4256 243.23 50.4506C243.23 49.464 243.883 48.8123 244.767 48.8123C247.172 48.8123 252.429 52.5282 254.181 52.5282C254.624 52.5282 254.948 52.314 254.948 51.655C254.948 49.6837 253.088 46.4034 253.088 44.7651C253.088 44.324 253.419 44 254.075 44C257.031 44 261.408 45.2044 263.714 45.2044C264.481 45.2044 264.695 44.7651 264.695 44.324C264.695 41.917 257.575 37.2127 257.575 35.7886C257.575 34.4779 266.425 32.5012 266.425 30.429C266.425 28.2379 254.392 29.7718 254.392 27.6906C254.392 26.1603 256.694 23.5336 256.694 22.331C256.694 21.7837 256.255 21.5659 255.49 21.5659C254.503 21.5659 249.246 23.6453 247.055 23.6453C245.964 23.6453 244.643 23.4274 244.643 21.8899C244.643 19.373 248.915 16.6401 255.6 16.6401ZM230.321 30.6468C230.321 30.429 230.537 30.3191 230.867 30.3191C232.076 30.3191 234.161 30.7566 235.807 30.7566C237.231 30.7566 237.449 24.6283 238.522 24.6283C239.29 24.6283 240.599 30.429 241.813 30.429C243.233 30.429 245.86 28.7852 246.954 28.7852C247.169 28.7852 247.392 28.8915 247.392 29.1147C247.392 29.8817 244.654 32.8306 244.654 33.7074C244.654 34.694 250.787 35.9002 250.787 36.7752C250.787 37.8716 244.546 37.7618 244.546 38.7466C244.546 39.5063 246.846 42.5723 246.846 43.5589C246.846 43.7803 246.731 43.8902 246.513 43.8902C245.633 43.8902 242.241 42.3527 241.256 42.3527C240.048 42.3527 238.1 46.8409 237.114 46.8409C236.788 46.8409 236.566 46.4034 236.566 45.8543L236.349 41.4813C236.349 41.0438 236.136 40.6027 235.582 40.6027C234.269 40.6027 231.749 40.4911 230.973 40.4911C230.422 40.4911 230.209 40.3831 230.209 40.1634C230.204 39.2885 234.593 36.2279 234.593 35.4627C234.6 34.2547 230.321 31.9593 230.321 30.6468Z" fill="#1766a6"/>
<path d="M186.884 241.289C186.673 239.33 185.572 237.467 183.49 237.467C181.849 237.467 180.642 238.67 180.642 240.536C180.642 242.274 181.847 243.709 181.847 245.565C181.847 246.55 181.514 247.646 180.642 248.733C179.443 246.55 176.048 245.455 174.514 245.459C163.244 245.459 167.509 261.766 155.473 261.766C150.442 261.766 149.997 261.113 148.144 261.113C147.377 261.113 146.938 261.442 146.938 262.097C146.938 264.947 150.991 271.944 162.263 271.944C173.531 271.944 184.369 265.055 184.369 256.511C184.369 255.087 184.041 253.566 183.381 252.032C183.82 251.378 184.918 250.942 185.899 250.942C187.649 250.942 188.634 252.919 190.276 252.919C192.029 252.919 193.346 251.6 193.346 249.853C193.346 248.422 192.577 247.441 191.268 246.78C192.143 246.128 192.802 245.032 192.802 243.826C192.802 241.959 191.484 240.22 189.293 240.22C188.305 240.211 187.651 240.544 186.884 241.289Z" fill="#1766a6"/>
<path d="M121.989 215.134C118.163 215.134 113.889 217.208 113.889 220.274C113.889 222.148 114.874 223.458 121.877 225.217C130.632 227.39 135.012 232.096 135.882 237.683C136.757 243.044 137.85 247.426 139.929 249.61C142.668 252.68 148.029 255.402 152.739 255.402C156.678 255.402 159.846 254.1 159.846 250.485C159.846 246.546 154.487 237.681 146.607 237.681C145.843 237.681 144.859 237.795 143.762 237.795C142.777 237.795 141.352 237.58 140.48 236.808C138.734 235.27 138.183 227.065 134.899 222.142C131.288 216.671 127.35 215.134 121.989 215.134ZM146.929 241.725C149.669 241.725 154.588 245.126 154.588 247.974C154.589 248.735 154.046 249.729 152.411 249.729C149.122 249.729 144.2 246.218 144.2 244.247C144.2 242.598 145.735 241.725 146.929 241.725Z" fill="#1766a6"/>
<path d="M176.811 211.859C176.811 214.819 171.669 217.663 164.666 217.656C156.896 217.656 151.534 216.349 146.607 211.416C145.296 210.107 144.751 208.8 143.107 208.8C141.245 208.8 140.48 212.075 140.48 215.033C140.48 225.754 150.658 238.457 164.886 238.457C182.614 238.457 189.507 226.2 189.507 216.352C189.507 210.545 188.195 205.075 178.457 201.469C173.522 199.604 171.235 196.648 170.247 190.957C167.835 194.356 166.634 197.523 166.634 199.388C166.634 206.825 176.811 206.935 176.811 211.859ZM181.733 216.788C182.718 216.788 183.6 217.433 183.6 218.972C183.6 224.666 177.358 231.339 173.419 231.339C171.889 231.339 171.669 230.57 171.669 229.259C171.669 228.265 171.999 226.422 171.999 224.998C171.999 221.168 173.497 221.458 177.25 219.744C179.879 218.536 180.858 216.788 181.733 216.788Z" fill="#1766a6"/>
<path d="M159.634 167.983C159.634 163.276 167.509 159.771 167.509 152.221C167.509 147.846 163.24 142.479 157.445 139.308C158.43 141.17 158.979 143.682 158.979 145.107C158.979 153.754 142.34 157.474 142.34 164.479C142.34 173.126 158.431 176.842 158.428 180.896C158.428 182.209 157.654 183.08 155.909 183.08C153.938 183.08 150.877 181.332 147.806 178.705C144.311 182.101 142.01 186.8 142.01 192.158C142.01 202.996 153.39 212.073 164.446 212.073C166.31 212.073 168.056 211.745 170.022 211.31C164.011 210.541 160.07 205.95 160.07 200.369C160.07 193.148 168.058 186.688 168.058 181.113C168.054 174.327 159.634 173.454 159.634 167.983Z" fill="#1766a6"/>
<path d="M78.8687 218.536C79.3314 222.268 82.8169 225.102 86.7488 224.666C88.1693 224.506 89.4872 224.121 90.364 223.577C91.2389 227.072 94.1789 229.324 98.1468 228.802C102.176 228.28 104.918 225.102 104.484 221.053C104.371 219.966 104.153 219.296 103.829 218.536C103.829 218.536 104.362 218.479 104.763 218.405C108.715 217.656 111.378 214.482 111.048 210.654C110.614 206.715 107.077 203.791 103.398 204.245C101.969 204.42 100.655 204.963 99.7762 205.729C98.7878 202.45 95.7002 199.6 91.4892 200.295C87.685 200.927 85.1699 204.155 85.5498 208.249C85.6128 208.913 85.7659 209.671 86.0953 210.435C86.0953 210.435 85.4526 210.532 85.0079 210.593C81.8141 211.068 78.3502 214.284 78.8687 218.536ZM94.701 210.568C96.9892 210.3 99.0542 211.945 99.3153 214.23C99.5817 216.516 97.9506 218.576 95.666 218.844C93.3813 219.111 91.3109 217.472 91.0499 215.195C90.7816 212.903 92.4181 210.834 94.701 210.568Z" fill="#1766a6"/>
</g>
<defs>
<filter id="filter0_d" x="0.565521" y="0.843002" width="399.434" height="437.647" filterUnits="userSpaceOnUse" color-interpolation-filters="sRGB">
<feFlood flood-opacity="0" result="BackgroundImageFix"/>
<feColorMatrix in="SourceAlpha" type="matrix" values="0 0 0 0 0 0 0 0 0 0 0 0 0 0 0 0 0 0 127 0"/>
<feOffset dy="10"/>
<feGaussianBlur stdDeviation="10"/>
<feColorMatrix type="matrix" values="0 0 0 0 0 0 0 0 0 0 0 0 0 0 0 0 0 0 0.1 0"/>
<feBlend mode="normal" in2="BackgroundImageFix" result="effect1_dropShadow"/>
<feBlend mode="normal" in="SourceGraphic" in2="effect1_dropShadow" result="shape"/>
</filter>
</defs>
</svg>
