<svg width="306" height="305" viewBox="0 0 306 305" fill="none" xmlns="http://www.w3.org/2000/svg">
<path d="M54.6001 243.4C71.2001 253.4 90.5001 259.1 111.3 259.2C124.7 259.2 137.6 256.9 149.5 252.5C173.4 243.8 193.4 227.1 206.3 205.6C216.3 189 222 169.7 222.1 148.9C222 188.9 189.5 221.2 149.6 221.1C128.9 221.1 109.5 215.3 92.9001 205.3C71.4001 192.4 54.7001 172.4 46.0001 148.5C41.7001 136.6 39.3001 123.7 39.3001 110.3C39.3001 89.6 45.1001 70.2 55.1001 53.6C74.5001 21.4 109.8 -0.100019 150.1 -1.88533e-05C67.9001 -0.100019 1.2001 66.3 1.0001 148.4C0.900103 188.7 22.4001 224 54.6001 243.4Z" fill="url(#paint0_linear)"/>
<path d="M156.7 83.2999C177.4 83.2999 196.8 89.0999 213.4 99.0999C234.9 112 251.6 132 260.3 155.9C264.6 167.8 267 180.7 267 194.1C267 214.8 261.2 234.2 251.2 250.8C231.8 283 178.2 304 156.6 303.5C237.2 305.5 305.1 238.2 305.3 156.1C305.4 115.8 283.9 80.4999 251.7 61.0999C235.1 51.0999 215.8 45.3999 195 45.2999C181.6 45.2999 168.7 47.5999 156.8 51.9999C132.9 60.6999 112.9 77.3999 100 98.8999C90.0001 115.5 84.3001 134.8 84.2001 155.6C84.3001 115.5 116.7 83.1999 156.7 83.2999Z" fill="url(#paint1_linear)"/>
<path d="M149.1 304.3C189.4 304.4 224.7 282.9 244.1 250.7C254.1 234.1 259.8 214.8 259.9 194C259.9 180.6 257.6 167.7 253.2 155.8C244.5 131.9 227.8 111.9 206.3 99C189.7 89 170.4 83.3 149.6 83.2C189.6 83.3 221.9 115.8 221.8 155.7C221.8 176.4 216 195.8 206 212.4C193.1 233.9 173.1 250.6 149.2 259.3C137.3 263.6 124.4 266 111 266C90.3001 266 70.9001 260.2 54.3001 250.2C22.1001 230.8 0.600054 195.5 0.700054 155.2C0.600054 237.4 67.0001 304.1 149.1 304.3Z" fill="url(#paint2_linear)"/>
<defs>
<linearGradient id="paint0_linear" x1="32.2377" y1="129.59" x2="212.056" y2="129.59" gradientUnits="userSpaceOnUse">
<stop stop-color="#ABDEFC"/>
<stop offset="0.668" stop-color="#3683CB"/>
<stop offset="1" stop-color="#0059B5"/>
</linearGradient>
<linearGradient id="paint1_linear" x1="194.663" y1="85.4792" x2="194.663" y2="294.352" gradientUnits="userSpaceOnUse">
<stop stop-color="#ABDEFC"/>
<stop offset="0.668" stop-color="#3683CB"/>
<stop offset="1" stop-color="#0059B5"/>
</linearGradient>
<linearGradient id="paint2_linear" x1="130.343" y1="103.982" x2="130.343" y2="300.877" gradientUnits="userSpaceOnUse">
<stop stop-color="#ABDEFC"/>
<stop offset="0.1144" stop-color="#A2D7F8"/>
<stop offset="0.3046" stop-color="#88C3EE"/>
<stop offset="0.5473" stop-color="#5FA3DC"/>
<stop offset="0.8299" stop-color="#2676C5"/>
<stop offset="1" stop-color="#0059B5"/>
</linearGradient>
</defs>
</svg>
