<svg width="28" height="28" viewBox="0 0 28 28" fill="none" xmlns="http://www.w3.org/2000/svg">
<path d="M12.3594 16.498C12.3594 15.5475 12.4668 14.7988 12.6816 14.252C12.8965 13.6986 13.2448 13.2201 13.7266 12.8164C14.2083 12.4128 14.5729 12.0449 14.8203 11.7129C15.0742 11.3743 15.2012 11.0033 15.2012 10.5996C15.2012 9.61654 14.778 9.125 13.9316 9.125C13.541 9.125 13.2253 9.26823 12.9844 9.55469C12.7435 9.84115 12.6165 10.2285 12.6035 10.7168H9.30273C9.31576 9.41471 9.72591 8.40234 10.5332 7.67969C11.3405 6.95052 12.4733 6.58594 13.9316 6.58594C15.3835 6.58594 16.5065 6.92122 17.3008 7.5918C18.1016 8.26237 18.502 9.21615 18.502 10.4531C18.502 10.9935 18.3945 11.485 18.1797 11.9277C17.9648 12.3704 17.6198 12.8229 17.1445 13.2852L16.0215 14.3301C15.7025 14.6361 15.4811 14.9518 15.3574 15.2773C15.2337 15.5964 15.1654 16.0033 15.1523 16.498H12.3594ZM11.959 19.4668C11.959 18.985 12.1315 18.5911 12.4766 18.2852C12.8281 17.9727 13.2643 17.8164 13.7852 17.8164C14.306 17.8164 14.7389 17.9727 15.084 18.2852C15.4355 18.5911 15.6113 18.985 15.6113 19.4668C15.6113 19.9486 15.4355 20.3457 15.084 20.6582C14.7389 20.9642 14.306 21.1172 13.7852 21.1172C13.2643 21.1172 12.8281 20.9642 12.4766 20.6582C12.1315 20.3457 11.959 19.9486 11.959 19.4668Z" fill="white"/>
</svg>
