<svg width="28" height="28" viewBox="0 0 28 28" fill="none" xmlns="http://www.w3.org/2000/svg">
<g clip-path="url(#clip0)">
<path d="M21.9989 6.57866C21.9786 6.25479 21.6502 6.02001 21.3159 6.14794C21.231 6.18218 22.0195 5.63007 10.0236 14.1731C9.89235 14.2666 9.81445 14.4177 9.81445 14.5788V20.3894C9.81445 20.6188 9.97167 20.8203 10.1973 20.8739C10.4213 20.9272 10.6533 20.8198 10.7573 20.6135C10.9417 20.2475 12.5733 17.0098 12.8494 16.462L21.8634 6.95269C21.9594 6.85142 22.0077 6.71592 21.9989 6.57866V6.57866Z" fill="white"/>
<path d="M13.6729 17.0411L13.4285 17.5262L17.1543 20.2913C17.4304 20.4962 17.8271 20.3659 17.9275 20.0367L21.293 9.00238L13.6729 17.0411Z" fill="white"/>
<path d="M9.44579 13.3618L17.564 7.58023L5.32041 12.2542C5.1278 12.3277 5.0004 12.5123 5 12.7185C4.9996 12.9247 5.12627 13.1098 5.31862 13.1841L8.81968 14.5362C8.83309 14.0699 9.06452 13.6333 9.44579 13.3618V13.3618Z" fill="white"/>
</g>
<defs>
<clipPath id="clip0">
<rect width="17" height="17" fill="white" transform="translate(5 5)"/>
</clipPath>
</defs>
</svg>
