<svg width="365" height="103" viewBox="0 0 365 103" fill="none" xmlns="http://www.w3.org/2000/svg">
<path d="M4.178 80C3.022 80 2.07 79.626 1.322 78.878C0.574 78.13 0.2 77.178 0.2 76.022V4.316C0.2 3.15999 0.574 2.20799 1.322 1.46C2.07 0.711997 3.022 0.337998 4.178 0.337998C5.334 0.337998 6.286 0.711997 7.034 1.46C7.782 2.20799 8.156 3.15999 8.156 4.316V76.022C8.156 77.178 7.782 78.13 7.034 78.878C6.286 79.626 5.334 80 4.178 80ZM31.5467 80C30.3227 80 29.3367 79.66 28.5887 78.98C27.9087 78.232 27.5687 77.28 27.5687 76.124V28.184C27.5687 26.96 27.9087 26.008 28.5887 25.328C29.3367 24.58 30.3227 24.206 31.5467 24.206C32.7027 24.206 33.6207 24.58 34.3007 25.328C35.0487 26.008 35.4227 26.96 35.4227 28.184V31.652C37.5987 29.136 40.2847 27.164 43.4807 25.736C46.7447 24.308 50.2467 23.594 53.9867 23.594C58.8147 23.594 63.1327 24.614 66.9407 26.654C70.7487 28.626 73.7407 31.55 75.9167 35.426C78.1607 39.302 79.2827 44.028 79.2827 49.604V76.124C79.2827 77.212 78.9087 78.13 78.1607 78.878C77.4127 79.626 76.4947 80 75.4067 80C74.2507 80 73.2987 79.626 72.5507 78.878C71.8027 78.13 71.4287 77.212 71.4287 76.124V49.604C71.4287 43.28 69.6607 38.622 66.1247 35.63C62.6567 32.57 58.3387 31.04 53.1707 31.04C49.8387 31.04 46.8127 31.686 44.0927 32.978C41.4407 34.27 39.3327 36.038 37.7687 38.282C36.2047 40.526 35.4227 43.076 35.4227 45.932V76.124C35.4227 77.28 35.0487 78.232 34.3007 78.98C33.6207 79.66 32.7027 80 31.5467 80ZM118.426 80C114.822 80 111.592 79.15 108.736 77.45C105.948 75.75 103.738 73.438 102.106 70.514C100.474 67.522 99.658 64.122 99.658 60.314V33.08H93.028C92.008 33.08 91.158 32.774 90.478 32.162C89.798 31.482 89.458 30.666 89.458 29.714C89.458 28.694 89.798 27.878 90.478 27.266C91.158 26.586 92.008 26.246 93.028 26.246H99.658V10.436C99.658 9.27999 99.998 8.32799 100.678 7.58C101.426 6.832 102.378 6.458 103.534 6.458C104.69 6.458 105.642 6.832 106.39 7.58C107.138 8.32799 107.512 9.27999 107.512 10.436V26.246H119.038C120.058 26.246 120.908 26.586 121.588 27.266C122.268 27.878 122.608 28.694 122.608 29.714C122.608 30.666 122.268 31.482 121.588 32.162C120.908 32.774 120.058 33.08 119.038 33.08H107.512V60.314C107.512 63.782 108.532 66.638 110.572 68.882C112.612 71.058 115.23 72.146 118.426 72.146H121.18C122.268 72.146 123.152 72.52 123.832 73.268C124.512 74.016 124.852 74.968 124.852 76.124C124.852 77.28 124.444 78.232 123.628 78.98C122.812 79.66 121.792 80 120.568 80H118.426ZM162.933 80.51C157.425 80.51 152.529 79.32 148.245 76.94C144.029 74.492 140.697 71.126 138.249 66.842C135.869 62.558 134.679 57.662 134.679 52.154C134.679 46.578 135.801 41.682 138.045 37.466C140.357 33.182 143.519 29.816 147.531 27.368C151.543 24.92 156.167 23.696 161.403 23.696C166.571 23.696 171.059 24.886 174.867 27.266C178.743 29.578 181.735 32.808 183.843 36.956C185.951 41.104 187.005 45.83 187.005 51.134C187.005 52.222 186.665 53.106 185.985 53.786C185.305 54.398 184.421 54.704 183.333 54.704H142.125C142.533 58.376 143.655 61.64 145.491 64.496C147.327 67.284 149.741 69.494 152.733 71.126C155.725 72.69 159.125 73.472 162.933 73.472C165.381 73.472 167.829 73.064 170.277 72.248C172.793 71.364 174.799 70.276 176.295 68.984C177.043 68.372 177.893 68.066 178.845 68.066C179.797 67.998 180.613 68.236 181.293 68.78C182.177 69.596 182.619 70.48 182.619 71.432C182.687 72.384 182.313 73.2 181.497 73.88C179.253 75.784 176.397 77.382 172.929 78.674C169.461 79.898 166.129 80.51 162.933 80.51ZM161.403 30.734C156.167 30.734 151.849 32.366 148.449 35.63C145.049 38.826 143.009 43.008 142.329 48.176H179.661C179.117 43.008 177.213 38.826 173.949 35.63C170.753 32.366 166.571 30.734 161.403 30.734ZM222.881 80.51C217.509 80.51 212.749 79.32 208.601 76.94C204.453 74.492 201.189 71.126 198.809 66.842C196.497 62.558 195.341 57.662 195.341 52.154C195.341 46.578 196.565 41.648 199.013 37.364C201.461 33.08 204.827 29.748 209.111 27.368C213.395 24.92 218.257 23.696 223.697 23.696C229.205 23.696 234.067 24.92 238.283 27.368C242.567 29.748 245.899 33.08 248.279 37.364C250.727 41.648 251.985 46.578 252.053 52.154V72.962C252.053 78.47 250.829 83.4 248.381 87.752C245.933 92.172 242.601 95.64 238.385 98.156C234.169 100.74 229.341 102.032 223.901 102.032C218.529 102.032 213.803 101.012 209.723 98.972C205.643 97 202.277 94.28 199.625 90.812C198.877 89.996 198.537 89.112 198.605 88.16C198.741 87.208 199.251 86.426 200.135 85.814C201.019 85.202 202.005 84.998 203.093 85.202C204.181 85.406 205.031 85.916 205.643 86.732C207.615 89.18 210.131 91.152 213.191 92.648C216.319 94.144 219.923 94.892 224.003 94.892C227.811 94.892 231.245 93.974 234.305 92.138C237.365 90.302 239.779 87.718 241.547 84.386C243.383 81.054 244.301 77.144 244.301 72.656V67.964C242.261 71.84 239.371 74.9 235.631 77.144C231.959 79.388 227.709 80.51 222.881 80.51ZM223.697 73.37C227.709 73.37 231.245 72.486 234.305 70.718C237.433 68.882 239.881 66.366 241.649 63.17C243.417 59.974 244.301 56.302 244.301 52.154C244.301 48.006 243.417 44.334 241.649 41.138C239.881 37.874 237.433 35.358 234.305 33.59C231.245 31.754 227.709 30.836 223.697 30.836C219.685 30.836 216.115 31.754 212.987 33.59C209.859 35.358 207.411 37.874 205.643 41.138C203.875 44.334 202.991 48.006 202.991 52.154C202.991 56.302 203.875 59.974 205.643 63.17C207.411 66.366 209.859 68.882 212.987 70.718C216.115 72.486 219.685 73.37 223.697 73.37ZM292.624 80.51C287.116 80.51 282.22 79.32 277.936 76.94C273.72 74.492 270.388 71.126 267.94 66.842C265.56 62.558 264.37 57.662 264.37 52.154C264.37 46.578 265.492 41.682 267.736 37.466C270.048 33.182 273.21 29.816 277.222 27.368C281.234 24.92 285.858 23.696 291.094 23.696C296.262 23.696 300.75 24.886 304.558 27.266C308.434 29.578 311.426 32.808 313.534 36.956C315.642 41.104 316.696 45.83 316.696 51.134C316.696 52.222 316.356 53.106 315.676 53.786C314.996 54.398 314.112 54.704 313.024 54.704H271.816C272.224 58.376 273.346 61.64 275.182 64.496C277.018 67.284 279.432 69.494 282.424 71.126C285.416 72.69 288.816 73.472 292.624 73.472C295.072 73.472 297.52 73.064 299.968 72.248C302.484 71.364 304.49 70.276 305.986 68.984C306.734 68.372 307.584 68.066 308.536 68.066C309.488 67.998 310.304 68.236 310.984 68.78C311.868 69.596 312.31 70.48 312.31 71.432C312.378 72.384 312.004 73.2 311.188 73.88C308.944 75.784 306.088 77.382 302.62 78.674C299.152 79.898 295.82 80.51 292.624 80.51ZM291.094 30.734C285.858 30.734 281.54 32.366 278.14 35.63C274.74 38.826 272.7 43.008 272.02 48.176H309.352C308.808 43.008 306.904 38.826 303.64 35.63C300.444 32.366 296.262 30.734 291.094 30.734ZM333.859 80C331.275 80 329.983 78.708 329.983 76.124V28.082C329.983 25.498 331.275 24.206 333.859 24.206C336.443 24.206 337.735 25.498 337.735 28.082V32.468C339.775 29.748 342.291 27.606 345.283 26.042C348.275 24.41 351.573 23.594 355.177 23.594C358.305 23.594 360.719 24.036 362.419 24.92C364.119 25.804 364.765 27.096 364.357 28.796C364.017 30.36 363.201 31.176 361.909 31.244C360.685 31.244 359.223 31.176 357.523 31.04C353.715 30.7 350.315 31.108 347.323 32.264C344.399 33.352 342.053 35.052 340.285 37.364C338.585 39.676 337.735 42.43 337.735 45.626V76.124C337.735 78.708 336.443 80 333.859 80Z" fill="#1766A6"/>
</svg>
