<svg width="15" height="15" viewBox="0 0 15 15" fill="none" xmlns="http://www.w3.org/2000/svg">
<path fill-rule="evenodd" clip-rule="evenodd" d="M6.87498 0.974976C5.78073 0.974976 4.87742 1.79243 4.7424 2.84998H3.12498H2.49998C2.00292 2.84998 1.59998 3.25292 1.59998 3.74998C1.59998 4.24703 2.00292 4.64998 2.49998 4.64998H3.05882L3.55318 11.9997L3.55331 12.0017C3.62016 13.0548 4.49383 13.875 5.54929 13.875H9.45066C10.5061 13.875 11.3798 13.0548 11.4466 12.0017L11.4468 11.9997L11.9411 4.64998H12.5C12.997 4.64998 13.4 4.24703 13.4 3.74998C13.4 3.25292 12.997 2.84998 12.5 2.84998H11.875H10.2576C10.1225 1.79243 9.21922 0.974976 8.12498 0.974976H6.87498ZM8.34151 2.84998H6.65845C6.71802 2.803 6.79322 2.77498 6.87498 2.77498H8.12498C8.20673 2.77498 8.28193 2.803 8.34151 2.84998ZM6.96165 6.21144C6.94036 5.71484 6.52054 5.32952 6.02393 5.3508C5.52733 5.37208 5.14201 5.79191 5.1633 6.28851L5.3508 10.6635C5.37208 11.1601 5.79191 11.5454 6.28851 11.5241C6.78511 11.5029 7.17043 11.083 7.14915 10.5864L6.96165 6.21144ZM9.83665 6.28851C9.85793 5.79191 9.47261 5.37208 8.97601 5.3508C8.47941 5.32952 8.05958 5.71484 8.0383 6.21144L7.8508 10.5864C7.82951 11.083 8.21483 11.5029 8.71143 11.5241C9.20804 11.5454 9.62786 11.1601 9.64915 10.6635L9.83665 6.28851Z" fill="#DCDCDC"/>
</svg>