<svg width="1000" height="214" viewBox="0 0 1000 214" fill="none" xmlns="http://www.w3.org/2000/svg">
<path d="M137.414 20.0428C128.208 22.9229 118.185 35.5501 121.056 54.7239C122.363 63.3791 127.136 75.0898 128.774 80.314C131.679 89.4701 135.115 103.81 130.562 133.638C124.797 170.979 111.033 196.794 80.0483 196.198C59.392 196.198 40.4185 180.125 38.1696 138.802C35.8455 99.7683 38.7706 83.169 45.0517 48.7533C47.9017 33.206 49.0337 20.0277 36.4365 22.3368C20.3933 25.7428 15.7902 32.079 10.616 49.8954C0.873875 83.169 -0.804065 106.675 0.292867 130.207C2.61696 180.125 24.9613 212.832 75.4753 213.944C133.988 215.121 157.52 158.301 159.779 111.254C161.522 76.8078 160.941 52.7454 155.777 34.3881C151.775 22.3418 147.738 17.1477 137.414 20.0428Z" fill="#1766A6"/>
<path d="M969.621 85.4533C915.676 85.4533 904.236 166.366 895.626 166.366C881.275 166.366 885.869 101.527 875.51 101.527C866.324 101.507 861.826 112.461 860.589 117.58C853.477 147.092 831.914 190.483 799.752 190.483C792.309 190.483 779.111 187.593 779.111 180.135C779.111 172.101 829.639 170.989 829.639 132.521C829.639 118.201 816.446 98.0855 796.927 98.0855C771.111 98.0855 745.917 126.225 745.917 165.229C745.917 200.195 767.655 211.681 789.444 211.681C827.325 211.681 850.281 180.681 862.327 154.881C868.082 172.101 871.473 211.681 885.874 211.681C891.584 211.681 895.631 208.806 902.518 193.348C919.693 154.881 936.347 110.693 959.308 110.693C967.893 110.693 962.754 126.225 983.41 126.225C993.138 126.225 1000 118.191 1000 108.975C1000 95.7515 987.963 85.4533 969.621 85.4533ZM789.434 121.061C801.505 121.061 804.966 135.336 802.071 143.981C799.196 152.572 788.883 162.364 772.829 165.214C769.378 156.594 767.645 121.061 789.434 121.061Z" fill="#1766A6"/>
<path d="M348.823 33.787C349.524 43.2587 355.104 51.0274 366.063 51.0274C378.635 51.0475 387.816 36.7072 386.664 23.4789C385.853 14.2777 378.635 8.00661 368.878 8.00661C357.994 8.01162 347.741 19.4368 348.823 33.787Z" fill="#1766A6"/>
<path d="M725.821 88.3482C712.577 88.3482 702.825 103.815 702.825 122.158C702.825 138.807 706.847 139.964 706.847 151.449C706.847 166.897 698.823 187.002 689.041 187.002C666.156 187.002 660.385 96.3372 646.611 96.3372C638.587 96.3372 634.56 106.064 632.271 112.972C619.594 149.14 602.463 188.74 569.741 188.74C563.39 188.74 555.976 185.835 551.944 181.843C574.875 167.508 590.382 152.546 590.382 134.219C590.382 118.692 580.049 95.1652 562.268 95.1652C539.888 95.1652 514.058 129.045 514.058 169.196C514.058 176.689 515.23 181.838 516.387 185.82C514.639 188.154 507.732 191.024 502.016 191.024C486.529 191.024 470.105 174.55 468.147 164.873C479.712 139.909 502.793 110.973 498.56 41.666C496.978 15.2895 483.218 -0.999231 466.023 0.0476133C442.562 1.49516 421.139 53.8224 424.56 109.44C425.221 120.325 429.97 150.192 436.626 164.968C424.986 183.621 410.195 186.401 401.6 186.401C389.513 186.401 371.176 179.514 371.196 151.429C379.831 127.868 374.091 100.92 362.025 100.92C344.82 100.92 339.079 131.279 338.503 152.536C332.783 165.189 326.452 175.507 317.822 175.507C292.022 175.507 289.753 95.1552 270.784 95.1552C255.297 95.1552 228.675 146.225 220.611 146.225C216.053 146.225 212.006 131.765 209.11 117.57C208.309 113.598 207.543 108.784 204.963 108.549C199.849 108.073 193.478 112.461 191.119 118.627C188.74 124.717 184.482 143.846 179.844 161.297C177.074 171.349 170.237 192.602 169.426 200.546C168.83 206.286 171.244 210.569 176.979 211.165C191.249 212.637 243.817 147.978 260.451 147.978C281.718 147.978 286.832 211.655 310.97 211.655C325.305 211.655 338.498 174.971 347.124 174.971C356.856 174.971 361.449 211.655 388.987 211.655C423.448 211.655 434.898 189.271 445.241 189.271C453.812 189.271 463.018 211.079 484.235 211.079C497.433 211.079 508.954 207.067 522.693 197.861C530.712 207.067 540.439 211.655 549.67 211.655C606.415 211.655 622.484 160.585 634.009 160.585C644.327 160.585 642.038 211.079 671.355 211.079C710.318 211.079 736.755 142.794 736.755 106.059C736.74 96.3323 733.835 88.3482 725.821 88.3482ZM460.679 137.134C457.253 137.38 453.586 133.583 452.099 108.919C449.764 71.1229 455.054 35.1795 466.469 34.4933C475.089 33.8972 478.971 41.135 479.968 57.1783C482.172 92.7109 467.005 136.753 460.679 137.134ZM543.91 170.984C541.571 168.059 536.467 161.232 536.467 146.831C536.467 128.474 548.468 122.754 553.687 122.754C559.944 122.754 565.148 130.793 565.148 140.51C565.148 151.985 560.515 165.79 543.91 170.984Z" fill="#1766A6"/>
</svg>
